<?xml version="1.0" encoding="UTF-8"?>
<svg xmlns="http://www.w3.org/2000/svg" xmlns:xlink="http://www.w3.org/1999/xlink" width="px" height="20px" viewBox="0 0 20 20" version="1.1">
<g id="surface1">
<path style=" stroke:none;fill-rule:nonzero;fill:rgb(14.901961%,30.19608%,89.411765%);fill-opacity:1;" d="M 18.824219 0 L 17.214844 17.996094 L 9.996094 20 L 2.792969 18 L 1.1875 0 Z M 18.824219 0 "/>
<path style=" stroke:none;fill-rule:nonzero;fill:rgb(16.078432%,39.607844%,94.509804%);fill-opacity:1;" d="M 10.003906 18.46875 L 15.839844 16.851562 L 17.214844 1.472656 L 10.003906 1.472656 Z M 10.003906 18.46875 "/>
<path style=" stroke:none;fill-rule:nonzero;fill:rgb(92.156863%,92.156863%,92.156863%);fill-opacity:1;" d="M 10.003906 8.148438 L 4.867188 8.148438 L 5.066406 10.355469 L 10.003906 10.355469 Z M 10.003906 8.148438 "/>
<path style=" stroke:none;fill-rule:nonzero;fill:rgb(92.156863%,92.156863%,92.156863%);fill-opacity:1;" d="M 10.003906 3.679688 L 4.46875 3.679688 L 4.667969 5.886719 L 10.003906 5.886719 Z M 10.003906 3.679688 "/>
<path style=" stroke:none;fill-rule:nonzero;fill:rgb(92.156863%,92.156863%,92.156863%);fill-opacity:1;" d="M 5.164062 11.460938 L 5.472656 14.925781 L 9.996094 16.179688 L 10.003906 16.179688 L 10.003906 13.882812 L 9.996094 13.882812 L 7.535156 13.21875 L 7.378906 11.460938 Z M 5.164062 11.460938 "/>
<path style=" stroke:none;fill-rule:nonzero;fill:rgb(100%,100%,100%);fill-opacity:1;" d="M 12.714844 10.355469 L 12.460938 13.21875 L 9.996094 13.882812 L 9.996094 16.179688 L 14.523438 14.925781 L 14.554688 14.554688 L 15.074219 8.742188 L 15.128906 8.148438 L 15.527344 3.679688 L 9.996094 3.679688 L 9.996094 5.886719 L 13.109375 5.886719 L 12.90625 8.148438 L 9.996094 8.148438 L 9.996094 10.355469 Z M 12.714844 10.355469 "/>
</g>
</svg>
