<?xml version="1.0" encoding="UTF-8"?>
<svg xmlns="http://www.w3.org/2000/svg" xmlns:xlink="http://www.w3.org/1999/xlink" width="px" height="20px" viewBox="0 0 20 20" version="1.1">
<defs>
<clipPath id="clip1">
  <path d="M 9 3 L 12 3 L 12 4 L 9 4 Z M 9 3 "/>
</clipPath>
<clipPath id="clip2">
  <path d="M 5.960938 3.675781 L 5.960938 7.28125 L 4.234375 7.28125 L 4.234375 9.085938 L 2.789062 9.085938 L 2.773438 9.242188 C 2.683594 10.226562 2.855469 11.132812 3.25 11.90625 L 3.382812 12.144531 C 3.460938 12.285156 3.554688 12.421875 3.652344 12.550781 C 3.75 12.683594 3.785156 12.753906 3.84375 12.839844 C 4.886719 14.011719 6.441406 14.574219 8.234375 14.574219 C 12.203125 14.574219 15.574219 12.816406 17.066406 8.863281 C 18.125 8.972656 19.140625 8.699219 19.601562 7.796875 C 18.867188 7.371094 17.917969 7.507812 17.375 7.78125 L 18.820312 3.675781 L 13.171875 7.28125 L 11.371094 7.28125 L 11.371094 3.675781 Z M 5.960938 3.675781 "/>
</clipPath>
<clipPath id="clip3">
  <path d="M 9 3 L 12 3 L 12 6 L 9 6 Z M 9 3 "/>
</clipPath>
<clipPath id="clip4">
  <path d="M 5.960938 3.675781 L 5.960938 7.28125 L 4.234375 7.28125 L 4.234375 9.085938 L 2.789062 9.085938 L 2.773438 9.242188 C 2.683594 10.226562 2.855469 11.132812 3.25 11.90625 L 3.382812 12.144531 C 3.460938 12.285156 3.554688 12.421875 3.652344 12.550781 C 3.75 12.683594 3.785156 12.753906 3.84375 12.839844 C 4.886719 14.011719 6.441406 14.574219 8.234375 14.574219 C 12.203125 14.574219 15.574219 12.816406 17.066406 8.863281 C 18.125 8.972656 19.140625 8.699219 19.601562 7.796875 C 18.867188 7.371094 17.917969 7.507812 17.375 7.78125 L 18.820312 3.675781 L 13.171875 7.28125 L 11.371094 7.28125 L 11.371094 3.675781 Z M 5.960938 3.675781 "/>
</clipPath>
<clipPath id="clip5">
  <path d="M 9 3 L 12 3 L 12 4 L 9 4 Z M 9 3 "/>
</clipPath>
<clipPath id="clip6">
  <path d="M 5.960938 3.675781 L 5.960938 7.28125 L 4.234375 7.28125 L 4.234375 9.085938 L 2.789062 9.085938 L 2.773438 9.242188 C 2.683594 10.226562 2.855469 11.132812 3.25 11.90625 L 3.382812 12.144531 C 3.460938 12.285156 3.554688 12.421875 3.652344 12.550781 C 3.75 12.683594 3.785156 12.753906 3.84375 12.839844 C 4.886719 14.011719 6.441406 14.574219 8.234375 14.574219 C 12.203125 14.574219 15.574219 12.816406 17.066406 8.863281 C 18.125 8.972656 19.140625 8.699219 19.601562 7.796875 C 18.867188 7.371094 17.917969 7.507812 17.375 7.78125 L 18.820312 3.675781 L 13.171875 7.28125 L 11.371094 7.28125 L 11.371094 3.675781 Z M 5.960938 3.675781 "/>
</clipPath>
<clipPath id="clip7">
  <path d="M 9 3 L 12 3 L 12 6 L 9 6 Z M 9 3 "/>
</clipPath>
<clipPath id="clip8">
  <path d="M 5.960938 3.675781 L 5.960938 7.28125 L 4.234375 7.28125 L 4.234375 9.085938 L 2.789062 9.085938 L 2.773438 9.242188 C 2.683594 10.226562 2.855469 11.132812 3.25 11.90625 L 3.382812 12.144531 C 3.460938 12.285156 3.554688 12.421875 3.652344 12.550781 C 3.75 12.683594 3.785156 12.753906 3.84375 12.839844 C 4.886719 14.011719 6.441406 14.574219 8.234375 14.574219 C 12.203125 14.574219 15.574219 12.816406 17.066406 8.863281 C 18.125 8.972656 19.140625 8.699219 19.601562 7.796875 C 18.867188 7.371094 17.917969 7.507812 17.375 7.78125 L 18.820312 3.675781 L 13.171875 7.28125 L 11.371094 7.28125 L 11.371094 3.675781 Z M 5.960938 3.675781 "/>
</clipPath>
<clipPath id="clip9">
  <path d="M 11 3 L 14 3 L 14 6 L 11 6 Z M 11 3 "/>
</clipPath>
<clipPath id="clip10">
  <path d="M 5.960938 3.675781 L 5.960938 7.28125 L 4.234375 7.28125 L 4.234375 9.085938 L 2.789062 9.085938 L 2.773438 9.242188 C 2.683594 10.226562 2.855469 11.132812 3.25 11.90625 L 3.382812 12.144531 C 3.460938 12.285156 3.554688 12.421875 3.652344 12.550781 C 3.75 12.683594 3.785156 12.753906 3.84375 12.839844 C 4.886719 14.011719 6.441406 14.574219 8.234375 14.574219 C 12.203125 14.574219 15.574219 12.816406 17.066406 8.863281 C 18.125 8.972656 19.140625 8.699219 19.601562 7.796875 C 18.867188 7.371094 17.917969 7.507812 17.375 7.78125 L 18.820312 3.675781 L 13.171875 7.28125 L 11.371094 7.28125 L 11.371094 3.675781 Z M 5.960938 3.675781 "/>
</clipPath>
<clipPath id="clip11">
  <path d="M 11 3 L 14 3 L 14 4 L 11 4 Z M 11 3 "/>
</clipPath>
<clipPath id="clip12">
  <path d="M 5.960938 3.675781 L 5.960938 7.28125 L 4.234375 7.28125 L 4.234375 9.085938 L 2.789062 9.085938 L 2.773438 9.242188 C 2.683594 10.226562 2.855469 11.132812 3.25 11.90625 L 3.382812 12.144531 C 3.460938 12.285156 3.554688 12.421875 3.652344 12.550781 C 3.75 12.683594 3.785156 12.753906 3.84375 12.839844 C 4.886719 14.011719 6.441406 14.574219 8.234375 14.574219 C 12.203125 14.574219 15.574219 12.816406 17.066406 8.863281 C 18.125 8.972656 19.140625 8.699219 19.601562 7.796875 C 18.867188 7.371094 17.917969 7.507812 17.375 7.78125 L 18.820312 3.675781 L 13.171875 7.28125 L 11.371094 7.28125 L 11.371094 3.675781 Z M 5.960938 3.675781 "/>
</clipPath>
<clipPath id="clip13">
  <path d="M 11 3 L 13 3 L 13 6 L 11 6 Z M 11 3 "/>
</clipPath>
<clipPath id="clip14">
  <path d="M 5.960938 3.675781 L 5.960938 7.28125 L 4.234375 7.28125 L 4.234375 9.085938 L 2.789062 9.085938 L 2.773438 9.242188 C 2.683594 10.226562 2.855469 11.132812 3.25 11.90625 L 3.382812 12.144531 C 3.460938 12.285156 3.554688 12.421875 3.652344 12.550781 C 3.75 12.683594 3.785156 12.753906 3.84375 12.839844 C 4.886719 14.011719 6.441406 14.574219 8.234375 14.574219 C 12.203125 14.574219 15.574219 12.816406 17.066406 8.863281 C 18.125 8.972656 19.140625 8.699219 19.601562 7.796875 C 18.867188 7.371094 17.917969 7.507812 17.375 7.78125 L 18.820312 3.675781 L 13.171875 7.28125 L 11.371094 7.28125 L 11.371094 3.675781 Z M 5.960938 3.675781 "/>
</clipPath>
<clipPath id="clip15">
  <path d="M 11 3 L 13 3 L 13 4 L 11 4 Z M 11 3 "/>
</clipPath>
<clipPath id="clip16">
  <path d="M 5.960938 3.675781 L 5.960938 7.28125 L 4.234375 7.28125 L 4.234375 9.085938 L 2.789062 9.085938 L 2.773438 9.242188 C 2.683594 10.226562 2.855469 11.132812 3.25 11.90625 L 3.382812 12.144531 C 3.460938 12.285156 3.554688 12.421875 3.652344 12.550781 C 3.75 12.683594 3.785156 12.753906 3.84375 12.839844 C 4.886719 14.011719 6.441406 14.574219 8.234375 14.574219 C 12.203125 14.574219 15.574219 12.816406 17.066406 8.863281 C 18.125 8.972656 19.140625 8.699219 19.601562 7.796875 C 18.867188 7.371094 17.917969 7.507812 17.375 7.78125 L 18.820312 3.675781 L 13.171875 7.28125 L 11.371094 7.28125 L 11.371094 3.675781 Z M 5.960938 3.675781 "/>
</clipPath>
<clipPath id="clip17">
  <path d="M 2 5 L 5 5 L 5 8 L 2 8 Z M 2 5 "/>
</clipPath>
<clipPath id="clip18">
  <path d="M 5.960938 3.675781 L 5.960938 7.28125 L 4.234375 7.28125 L 4.234375 9.085938 L 2.789062 9.085938 L 2.773438 9.242188 C 2.683594 10.226562 2.855469 11.132812 3.25 11.90625 L 3.382812 12.144531 C 3.460938 12.285156 3.554688 12.421875 3.652344 12.550781 C 3.75 12.683594 3.785156 12.753906 3.84375 12.839844 C 4.886719 14.011719 6.441406 14.574219 8.234375 14.574219 C 12.203125 14.574219 15.574219 12.816406 17.066406 8.863281 C 18.125 8.972656 19.140625 8.699219 19.601562 7.796875 C 18.867188 7.371094 17.917969 7.507812 17.375 7.78125 L 18.820312 3.675781 L 13.171875 7.28125 L 11.371094 7.28125 L 11.371094 3.675781 Z M 5.960938 3.675781 "/>
</clipPath>
<clipPath id="clip19">
  <path d="M 2 7 L 5 7 L 5 9 L 2 9 Z M 2 7 "/>
</clipPath>
<clipPath id="clip20">
  <path d="M 5.960938 3.675781 L 5.960938 7.28125 L 4.234375 7.28125 L 4.234375 9.085938 L 2.789062 9.085938 L 2.773438 9.242188 C 2.683594 10.226562 2.855469 11.132812 3.25 11.90625 L 3.382812 12.144531 C 3.460938 12.285156 3.554688 12.421875 3.652344 12.550781 C 3.75 12.683594 3.785156 12.753906 3.84375 12.839844 C 4.886719 14.011719 6.441406 14.574219 8.234375 14.574219 C 12.203125 14.574219 15.574219 12.816406 17.066406 8.863281 C 18.125 8.972656 19.140625 8.699219 19.601562 7.796875 C 18.867188 7.371094 17.917969 7.507812 17.375 7.78125 L 18.820312 3.675781 L 13.171875 7.28125 L 11.371094 7.28125 L 11.371094 3.675781 Z M 5.960938 3.675781 "/>
</clipPath>
<clipPath id="clip21">
  <path d="M 2 5 L 4 5 L 4 8 L 2 8 Z M 2 5 "/>
</clipPath>
<clipPath id="clip22">
  <path d="M 5.960938 3.675781 L 5.960938 7.28125 L 4.234375 7.28125 L 4.234375 9.085938 L 2.789062 9.085938 L 2.773438 9.242188 C 2.683594 10.226562 2.855469 11.132812 3.25 11.90625 L 3.382812 12.144531 C 3.460938 12.285156 3.554688 12.421875 3.652344 12.550781 C 3.75 12.683594 3.785156 12.753906 3.84375 12.839844 C 4.886719 14.011719 6.441406 14.574219 8.234375 14.574219 C 12.203125 14.574219 15.574219 12.816406 17.066406 8.863281 C 18.125 8.972656 19.140625 8.699219 19.601562 7.796875 C 18.867188 7.371094 17.917969 7.507812 17.375 7.78125 L 18.820312 3.675781 L 13.171875 7.28125 L 11.371094 7.28125 L 11.371094 3.675781 Z M 5.960938 3.675781 "/>
</clipPath>
<clipPath id="clip23">
  <path d="M 2 7 L 4 7 L 4 9 L 2 9 Z M 2 7 "/>
</clipPath>
<clipPath id="clip24">
  <path d="M 5.960938 3.675781 L 5.960938 7.28125 L 4.234375 7.28125 L 4.234375 9.085938 L 2.789062 9.085938 L 2.773438 9.242188 C 2.683594 10.226562 2.855469 11.132812 3.25 11.90625 L 3.382812 12.144531 C 3.460938 12.285156 3.554688 12.421875 3.652344 12.550781 C 3.75 12.683594 3.785156 12.753906 3.84375 12.839844 C 4.886719 14.011719 6.441406 14.574219 8.234375 14.574219 C 12.203125 14.574219 15.574219 12.816406 17.066406 8.863281 C 18.125 8.972656 19.140625 8.699219 19.601562 7.796875 C 18.867188 7.371094 17.917969 7.507812 17.375 7.78125 L 18.820312 3.675781 L 13.171875 7.28125 L 11.371094 7.28125 L 11.371094 3.675781 Z M 5.960938 3.675781 "/>
</clipPath>
<clipPath id="clip25">
  <path d="M 4 7 L 6 7 L 6 9 L 4 9 Z M 4 7 "/>
</clipPath>
<clipPath id="clip26">
  <path d="M 5.960938 3.675781 L 5.960938 7.28125 L 4.234375 7.28125 L 4.234375 9.085938 L 2.789062 9.085938 L 2.773438 9.242188 C 2.683594 10.226562 2.855469 11.132812 3.25 11.90625 L 3.382812 12.144531 C 3.460938 12.285156 3.554688 12.421875 3.652344 12.550781 C 3.75 12.683594 3.785156 12.753906 3.84375 12.839844 C 4.886719 14.011719 6.441406 14.574219 8.234375 14.574219 C 12.203125 14.574219 15.574219 12.816406 17.066406 8.863281 C 18.125 8.972656 19.140625 8.699219 19.601562 7.796875 C 18.867188 7.371094 17.917969 7.507812 17.375 7.78125 L 18.820312 3.675781 L 13.171875 7.28125 L 11.371094 7.28125 L 11.371094 3.675781 Z M 5.960938 3.675781 "/>
</clipPath>
<clipPath id="clip27">
  <path d="M 4 5 L 6 5 L 6 8 L 4 8 Z M 4 5 "/>
</clipPath>
<clipPath id="clip28">
  <path d="M 5.960938 3.675781 L 5.960938 7.28125 L 4.234375 7.28125 L 4.234375 9.085938 L 2.789062 9.085938 L 2.773438 9.242188 C 2.683594 10.226562 2.855469 11.132812 3.25 11.90625 L 3.382812 12.144531 C 3.460938 12.285156 3.554688 12.421875 3.652344 12.550781 C 3.75 12.683594 3.785156 12.753906 3.84375 12.839844 C 4.886719 14.011719 6.441406 14.574219 8.234375 14.574219 C 12.203125 14.574219 15.574219 12.816406 17.066406 8.863281 C 18.125 8.972656 19.140625 8.699219 19.601562 7.796875 C 18.867188 7.371094 17.917969 7.507812 17.375 7.78125 L 18.820312 3.675781 L 13.171875 7.28125 L 11.371094 7.28125 L 11.371094 3.675781 Z M 5.960938 3.675781 "/>
</clipPath>
<clipPath id="clip29">
  <path d="M 4 7 L 6 7 L 6 9 L 4 9 Z M 4 7 "/>
</clipPath>
<clipPath id="clip30">
  <path d="M 5.960938 3.675781 L 5.960938 7.28125 L 4.234375 7.28125 L 4.234375 9.085938 L 2.789062 9.085938 L 2.773438 9.242188 C 2.683594 10.226562 2.855469 11.132812 3.25 11.90625 L 3.382812 12.144531 C 3.460938 12.285156 3.554688 12.421875 3.652344 12.550781 C 3.75 12.683594 3.785156 12.753906 3.84375 12.839844 C 4.886719 14.011719 6.441406 14.574219 8.234375 14.574219 C 12.203125 14.574219 15.574219 12.816406 17.066406 8.863281 C 18.125 8.972656 19.140625 8.699219 19.601562 7.796875 C 18.867188 7.371094 17.917969 7.507812 17.375 7.78125 L 18.820312 3.675781 L 13.171875 7.28125 L 11.371094 7.28125 L 11.371094 3.675781 Z M 5.960938 3.675781 "/>
</clipPath>
<clipPath id="clip31">
  <path d="M 4 5 L 6 5 L 6 8 L 4 8 Z M 4 5 "/>
</clipPath>
<clipPath id="clip32">
  <path d="M 5.960938 3.675781 L 5.960938 7.28125 L 4.234375 7.28125 L 4.234375 9.085938 L 2.789062 9.085938 L 2.773438 9.242188 C 2.683594 10.226562 2.855469 11.132812 3.25 11.90625 L 3.382812 12.144531 C 3.460938 12.285156 3.554688 12.421875 3.652344 12.550781 C 3.75 12.683594 3.785156 12.753906 3.84375 12.839844 C 4.886719 14.011719 6.441406 14.574219 8.234375 14.574219 C 12.203125 14.574219 15.574219 12.816406 17.066406 8.863281 C 18.125 8.972656 19.140625 8.699219 19.601562 7.796875 C 18.867188 7.371094 17.917969 7.507812 17.375 7.78125 L 18.820312 3.675781 L 13.171875 7.28125 L 11.371094 7.28125 L 11.371094 3.675781 Z M 5.960938 3.675781 "/>
</clipPath>
<clipPath id="clip33">
  <path d="M 6 5 L 8 5 L 8 8 L 6 8 Z M 6 5 "/>
</clipPath>
<clipPath id="clip34">
  <path d="M 5.960938 3.675781 L 5.960938 7.28125 L 4.234375 7.28125 L 4.234375 9.085938 L 2.789062 9.085938 L 2.773438 9.242188 C 2.683594 10.226562 2.855469 11.132812 3.25 11.90625 L 3.382812 12.144531 C 3.460938 12.285156 3.554688 12.421875 3.652344 12.550781 C 3.75 12.683594 3.785156 12.753906 3.84375 12.839844 C 4.886719 14.011719 6.441406 14.574219 8.234375 14.574219 C 12.203125 14.574219 15.574219 12.816406 17.066406 8.863281 C 18.125 8.972656 19.140625 8.699219 19.601562 7.796875 C 18.867188 7.371094 17.917969 7.507812 17.375 7.78125 L 18.820312 3.675781 L 13.171875 7.28125 L 11.371094 7.28125 L 11.371094 3.675781 Z M 5.960938 3.675781 "/>
</clipPath>
<clipPath id="clip35">
  <path d="M 6 7 L 8 7 L 8 9 L 6 9 Z M 6 7 "/>
</clipPath>
<clipPath id="clip36">
  <path d="M 5.960938 3.675781 L 5.960938 7.28125 L 4.234375 7.28125 L 4.234375 9.085938 L 2.789062 9.085938 L 2.773438 9.242188 C 2.683594 10.226562 2.855469 11.132812 3.25 11.90625 L 3.382812 12.144531 C 3.460938 12.285156 3.554688 12.421875 3.652344 12.550781 C 3.75 12.683594 3.785156 12.753906 3.84375 12.839844 C 4.886719 14.011719 6.441406 14.574219 8.234375 14.574219 C 12.203125 14.574219 15.574219 12.816406 17.066406 8.863281 C 18.125 8.972656 19.140625 8.699219 19.601562 7.796875 C 18.867188 7.371094 17.917969 7.507812 17.375 7.78125 L 18.820312 3.675781 L 13.171875 7.28125 L 11.371094 7.28125 L 11.371094 3.675781 Z M 5.960938 3.675781 "/>
</clipPath>
<clipPath id="clip37">
  <path d="M 6 5 L 8 5 L 8 8 L 6 8 Z M 6 5 "/>
</clipPath>
<clipPath id="clip38">
  <path d="M 5.960938 3.675781 L 5.960938 7.28125 L 4.234375 7.28125 L 4.234375 9.085938 L 2.789062 9.085938 L 2.773438 9.242188 C 2.683594 10.226562 2.855469 11.132812 3.25 11.90625 L 3.382812 12.144531 C 3.460938 12.285156 3.554688 12.421875 3.652344 12.550781 C 3.75 12.683594 3.785156 12.753906 3.84375 12.839844 C 4.886719 14.011719 6.441406 14.574219 8.234375 14.574219 C 12.203125 14.574219 15.574219 12.816406 17.066406 8.863281 C 18.125 8.972656 19.140625 8.699219 19.601562 7.796875 C 18.867188 7.371094 17.917969 7.507812 17.375 7.78125 L 18.820312 3.675781 L 13.171875 7.28125 L 11.371094 7.28125 L 11.371094 3.675781 Z M 5.960938 3.675781 "/>
</clipPath>
<clipPath id="clip39">
  <path d="M 6 7 L 8 7 L 8 9 L 6 9 Z M 6 7 "/>
</clipPath>
<clipPath id="clip40">
  <path d="M 5.960938 3.675781 L 5.960938 7.28125 L 4.234375 7.28125 L 4.234375 9.085938 L 2.789062 9.085938 L 2.773438 9.242188 C 2.683594 10.226562 2.855469 11.132812 3.25 11.90625 L 3.382812 12.144531 C 3.460938 12.285156 3.554688 12.421875 3.652344 12.550781 C 3.75 12.683594 3.785156 12.753906 3.84375 12.839844 C 4.886719 14.011719 6.441406 14.574219 8.234375 14.574219 C 12.203125 14.574219 15.574219 12.816406 17.066406 8.863281 C 18.125 8.972656 19.140625 8.699219 19.601562 7.796875 C 18.867188 7.371094 17.917969 7.507812 17.375 7.78125 L 18.820312 3.675781 L 13.171875 7.28125 L 11.371094 7.28125 L 11.371094 3.675781 Z M 5.960938 3.675781 "/>
</clipPath>
<clipPath id="clip41">
  <path d="M 7 7 L 10 7 L 10 9 L 7 9 Z M 7 7 "/>
</clipPath>
<clipPath id="clip42">
  <path d="M 5.960938 3.675781 L 5.960938 7.28125 L 4.234375 7.28125 L 4.234375 9.085938 L 2.789062 9.085938 L 2.773438 9.242188 C 2.683594 10.226562 2.855469 11.132812 3.25 11.90625 L 3.382812 12.144531 C 3.460938 12.285156 3.554688 12.421875 3.652344 12.550781 C 3.75 12.683594 3.785156 12.753906 3.84375 12.839844 C 4.886719 14.011719 6.441406 14.574219 8.234375 14.574219 C 12.203125 14.574219 15.574219 12.816406 17.066406 8.863281 C 18.125 8.972656 19.140625 8.699219 19.601562 7.796875 C 18.867188 7.371094 17.917969 7.507812 17.375 7.78125 L 18.820312 3.675781 L 13.171875 7.28125 L 11.371094 7.28125 L 11.371094 3.675781 Z M 5.960938 3.675781 "/>
</clipPath>
<clipPath id="clip43">
  <path d="M 7 5 L 10 5 L 10 8 L 7 8 Z M 7 5 "/>
</clipPath>
<clipPath id="clip44">
  <path d="M 5.960938 3.675781 L 5.960938 7.28125 L 4.234375 7.28125 L 4.234375 9.085938 L 2.789062 9.085938 L 2.773438 9.242188 C 2.683594 10.226562 2.855469 11.132812 3.25 11.90625 L 3.382812 12.144531 C 3.460938 12.285156 3.554688 12.421875 3.652344 12.550781 C 3.75 12.683594 3.785156 12.753906 3.84375 12.839844 C 4.886719 14.011719 6.441406 14.574219 8.234375 14.574219 C 12.203125 14.574219 15.574219 12.816406 17.066406 8.863281 C 18.125 8.972656 19.140625 8.699219 19.601562 7.796875 C 18.867188 7.371094 17.917969 7.507812 17.375 7.78125 L 18.820312 3.675781 L 13.171875 7.28125 L 11.371094 7.28125 L 11.371094 3.675781 Z M 5.960938 3.675781 "/>
</clipPath>
<clipPath id="clip45">
  <path d="M 8 7 L 10 7 L 10 9 L 8 9 Z M 8 7 "/>
</clipPath>
<clipPath id="clip46">
  <path d="M 5.960938 3.675781 L 5.960938 7.28125 L 4.234375 7.28125 L 4.234375 9.085938 L 2.789062 9.085938 L 2.773438 9.242188 C 2.683594 10.226562 2.855469 11.132812 3.25 11.90625 L 3.382812 12.144531 C 3.460938 12.285156 3.554688 12.421875 3.652344 12.550781 C 3.75 12.683594 3.785156 12.753906 3.84375 12.839844 C 4.886719 14.011719 6.441406 14.574219 8.234375 14.574219 C 12.203125 14.574219 15.574219 12.816406 17.066406 8.863281 C 18.125 8.972656 19.140625 8.699219 19.601562 7.796875 C 18.867188 7.371094 17.917969 7.507812 17.375 7.78125 L 18.820312 3.675781 L 13.171875 7.28125 L 11.371094 7.28125 L 11.371094 3.675781 Z M 5.960938 3.675781 "/>
</clipPath>
<clipPath id="clip47">
  <path d="M 8 5 L 10 5 L 10 8 L 8 8 Z M 8 5 "/>
</clipPath>
<clipPath id="clip48">
  <path d="M 5.960938 3.675781 L 5.960938 7.28125 L 4.234375 7.28125 L 4.234375 9.085938 L 2.789062 9.085938 L 2.773438 9.242188 C 2.683594 10.226562 2.855469 11.132812 3.25 11.90625 L 3.382812 12.144531 C 3.460938 12.285156 3.554688 12.421875 3.652344 12.550781 C 3.75 12.683594 3.785156 12.753906 3.84375 12.839844 C 4.886719 14.011719 6.441406 14.574219 8.234375 14.574219 C 12.203125 14.574219 15.574219 12.816406 17.066406 8.863281 C 18.125 8.972656 19.140625 8.699219 19.601562 7.796875 C 18.867188 7.371094 17.917969 7.507812 17.375 7.78125 L 18.820312 3.675781 L 13.171875 7.28125 L 11.371094 7.28125 L 11.371094 3.675781 Z M 5.960938 3.675781 "/>
</clipPath>
<clipPath id="clip49">
  <path d="M 9 5 L 12 5 L 12 8 L 9 8 Z M 9 5 "/>
</clipPath>
<clipPath id="clip50">
  <path d="M 5.960938 3.675781 L 5.960938 7.28125 L 4.234375 7.28125 L 4.234375 9.085938 L 2.789062 9.085938 L 2.773438 9.242188 C 2.683594 10.226562 2.855469 11.132812 3.25 11.90625 L 3.382812 12.144531 C 3.460938 12.285156 3.554688 12.421875 3.652344 12.550781 C 3.75 12.683594 3.785156 12.753906 3.84375 12.839844 C 4.886719 14.011719 6.441406 14.574219 8.234375 14.574219 C 12.203125 14.574219 15.574219 12.816406 17.066406 8.863281 C 18.125 8.972656 19.140625 8.699219 19.601562 7.796875 C 18.867188 7.371094 17.917969 7.507812 17.375 7.78125 L 18.820312 3.675781 L 13.171875 7.28125 L 11.371094 7.28125 L 11.371094 3.675781 Z M 5.960938 3.675781 "/>
</clipPath>
<clipPath id="clip51">
  <path d="M 9 7 L 12 7 L 12 9 L 9 9 Z M 9 7 "/>
</clipPath>
<clipPath id="clip52">
  <path d="M 5.960938 3.675781 L 5.960938 7.28125 L 4.234375 7.28125 L 4.234375 9.085938 L 2.789062 9.085938 L 2.773438 9.242188 C 2.683594 10.226562 2.855469 11.132812 3.25 11.90625 L 3.382812 12.144531 C 3.460938 12.285156 3.554688 12.421875 3.652344 12.550781 C 3.75 12.683594 3.785156 12.753906 3.84375 12.839844 C 4.886719 14.011719 6.441406 14.574219 8.234375 14.574219 C 12.203125 14.574219 15.574219 12.816406 17.066406 8.863281 C 18.125 8.972656 19.140625 8.699219 19.601562 7.796875 C 18.867188 7.371094 17.917969 7.507812 17.375 7.78125 L 18.820312 3.675781 L 13.171875 7.28125 L 11.371094 7.28125 L 11.371094 3.675781 Z M 5.960938 3.675781 "/>
</clipPath>
<clipPath id="clip53">
  <path d="M 9 5 L 12 5 L 12 8 L 9 8 Z M 9 5 "/>
</clipPath>
<clipPath id="clip54">
  <path d="M 5.960938 3.675781 L 5.960938 7.28125 L 4.234375 7.28125 L 4.234375 9.085938 L 2.789062 9.085938 L 2.773438 9.242188 C 2.683594 10.226562 2.855469 11.132812 3.25 11.90625 L 3.382812 12.144531 C 3.460938 12.285156 3.554688 12.421875 3.652344 12.550781 C 3.75 12.683594 3.785156 12.753906 3.84375 12.839844 C 4.886719 14.011719 6.441406 14.574219 8.234375 14.574219 C 12.203125 14.574219 15.574219 12.816406 17.066406 8.863281 C 18.125 8.972656 19.140625 8.699219 19.601562 7.796875 C 18.867188 7.371094 17.917969 7.507812 17.375 7.78125 L 18.820312 3.675781 L 13.171875 7.28125 L 11.371094 7.28125 L 11.371094 3.675781 Z M 5.960938 3.675781 "/>
</clipPath>
<clipPath id="clip55">
  <path d="M 9 7 L 12 7 L 12 9 L 9 9 Z M 9 7 "/>
</clipPath>
<clipPath id="clip56">
  <path d="M 5.960938 3.675781 L 5.960938 7.28125 L 4.234375 7.28125 L 4.234375 9.085938 L 2.789062 9.085938 L 2.773438 9.242188 C 2.683594 10.226562 2.855469 11.132812 3.25 11.90625 L 3.382812 12.144531 C 3.460938 12.285156 3.554688 12.421875 3.652344 12.550781 C 3.75 12.683594 3.785156 12.753906 3.84375 12.839844 C 4.886719 14.011719 6.441406 14.574219 8.234375 14.574219 C 12.203125 14.574219 15.574219 12.816406 17.066406 8.863281 C 18.125 8.972656 19.140625 8.699219 19.601562 7.796875 C 18.867188 7.371094 17.917969 7.507812 17.375 7.78125 L 18.820312 3.675781 L 13.171875 7.28125 L 11.371094 7.28125 L 11.371094 3.675781 Z M 5.960938 3.675781 "/>
</clipPath>
<clipPath id="clip57">
  <path d="M 11 7 L 14 7 L 14 9 L 11 9 Z M 11 7 "/>
</clipPath>
<clipPath id="clip58">
  <path d="M 5.960938 3.675781 L 5.960938 7.28125 L 4.234375 7.28125 L 4.234375 9.085938 L 2.789062 9.085938 L 2.773438 9.242188 C 2.683594 10.226562 2.855469 11.132812 3.25 11.90625 L 3.382812 12.144531 C 3.460938 12.285156 3.554688 12.421875 3.652344 12.550781 C 3.75 12.683594 3.785156 12.753906 3.84375 12.839844 C 4.886719 14.011719 6.441406 14.574219 8.234375 14.574219 C 12.203125 14.574219 15.574219 12.816406 17.066406 8.863281 C 18.125 8.972656 19.140625 8.699219 19.601562 7.796875 C 18.867188 7.371094 17.917969 7.507812 17.375 7.78125 L 18.820312 3.675781 L 13.171875 7.28125 L 11.371094 7.28125 L 11.371094 3.675781 Z M 5.960938 3.675781 "/>
</clipPath>
<clipPath id="clip59">
  <path d="M 11 5 L 14 5 L 14 8 L 11 8 Z M 11 5 "/>
</clipPath>
<clipPath id="clip60">
  <path d="M 5.960938 3.675781 L 5.960938 7.28125 L 4.234375 7.28125 L 4.234375 9.085938 L 2.789062 9.085938 L 2.773438 9.242188 C 2.683594 10.226562 2.855469 11.132812 3.25 11.90625 L 3.382812 12.144531 C 3.460938 12.285156 3.554688 12.421875 3.652344 12.550781 C 3.75 12.683594 3.785156 12.753906 3.84375 12.839844 C 4.886719 14.011719 6.441406 14.574219 8.234375 14.574219 C 12.203125 14.574219 15.574219 12.816406 17.066406 8.863281 C 18.125 8.972656 19.140625 8.699219 19.601562 7.796875 C 18.867188 7.371094 17.917969 7.507812 17.375 7.78125 L 18.820312 3.675781 L 13.171875 7.28125 L 11.371094 7.28125 L 11.371094 3.675781 Z M 5.960938 3.675781 "/>
</clipPath>
<clipPath id="clip61">
  <path d="M 11 7 L 13 7 L 13 9 L 11 9 Z M 11 7 "/>
</clipPath>
<clipPath id="clip62">
  <path d="M 5.960938 3.675781 L 5.960938 7.28125 L 4.234375 7.28125 L 4.234375 9.085938 L 2.789062 9.085938 L 2.773438 9.242188 C 2.683594 10.226562 2.855469 11.132812 3.25 11.90625 L 3.382812 12.144531 C 3.460938 12.285156 3.554688 12.421875 3.652344 12.550781 C 3.75 12.683594 3.785156 12.753906 3.84375 12.839844 C 4.886719 14.011719 6.441406 14.574219 8.234375 14.574219 C 12.203125 14.574219 15.574219 12.816406 17.066406 8.863281 C 18.125 8.972656 19.140625 8.699219 19.601562 7.796875 C 18.867188 7.371094 17.917969 7.507812 17.375 7.78125 L 18.820312 3.675781 L 13.171875 7.28125 L 11.371094 7.28125 L 11.371094 3.675781 Z M 5.960938 3.675781 "/>
</clipPath>
<clipPath id="clip63">
  <path d="M 11 5 L 13 5 L 13 8 L 11 8 Z M 11 5 "/>
</clipPath>
<clipPath id="clip64">
  <path d="M 5.960938 3.675781 L 5.960938 7.28125 L 4.234375 7.28125 L 4.234375 9.085938 L 2.789062 9.085938 L 2.773438 9.242188 C 2.683594 10.226562 2.855469 11.132812 3.25 11.90625 L 3.382812 12.144531 C 3.460938 12.285156 3.554688 12.421875 3.652344 12.550781 C 3.75 12.683594 3.785156 12.753906 3.84375 12.839844 C 4.886719 14.011719 6.441406 14.574219 8.234375 14.574219 C 12.203125 14.574219 15.574219 12.816406 17.066406 8.863281 C 18.125 8.972656 19.140625 8.699219 19.601562 7.796875 C 18.867188 7.371094 17.917969 7.507812 17.375 7.78125 L 18.820312 3.675781 L 13.171875 7.28125 L 11.371094 7.28125 L 11.371094 3.675781 Z M 5.960938 3.675781 "/>
</clipPath>
<clipPath id="clip65">
  <path d="M 2 5 L 20 5 L 20 15 L 2 15 Z M 2 5 "/>
</clipPath>
<clipPath id="clip66">
  <path d="M 5.960938 3.675781 L 5.960938 7.28125 L 4.234375 7.28125 L 4.234375 9.085938 L 2.789062 9.085938 L 2.773438 9.242188 C 2.683594 10.226562 2.855469 11.132812 3.25 11.90625 L 3.382812 12.144531 C 3.460938 12.285156 3.554688 12.421875 3.652344 12.550781 C 3.75 12.683594 3.785156 12.753906 3.84375 12.839844 C 4.886719 14.011719 6.441406 14.574219 8.234375 14.574219 C 12.203125 14.574219 15.574219 12.816406 17.066406 8.863281 C 18.125 8.972656 19.140625 8.699219 19.601562 7.796875 C 18.867188 7.371094 17.917969 7.507812 17.375 7.78125 L 18.820312 3.675781 L 13.171875 7.28125 L 11.371094 7.28125 L 11.371094 3.675781 Z M 5.960938 3.675781 "/>
</clipPath>
<clipPath id="clip67">
  <path d="M 2 10 L 20 10 L 20 15 L 2 15 Z M 2 10 "/>
</clipPath>
<clipPath id="clip68">
  <path d="M 5.960938 3.675781 L 5.960938 7.28125 L 4.234375 7.28125 L 4.234375 9.085938 L 2.789062 9.085938 L 2.773438 9.242188 C 2.683594 10.226562 2.855469 11.132812 3.25 11.90625 L 3.382812 12.144531 C 3.460938 12.285156 3.554688 12.421875 3.652344 12.550781 C 3.75 12.683594 3.785156 12.753906 3.84375 12.839844 C 4.886719 14.011719 6.441406 14.574219 8.234375 14.574219 C 12.203125 14.574219 15.574219 12.816406 17.066406 8.863281 C 18.125 8.972656 19.140625 8.699219 19.601562 7.796875 C 18.867188 7.371094 17.917969 7.507812 17.375 7.78125 L 18.820312 3.675781 L 13.171875 7.28125 L 11.371094 7.28125 L 11.371094 3.675781 Z M 5.960938 3.675781 "/>
</clipPath>
<clipPath id="clip69">
  <path d="M 3 12 L 9 12 L 9 15 L 3 15 Z M 3 12 "/>
</clipPath>
<clipPath id="clip70">
  <path d="M 5.960938 3.675781 L 5.960938 7.28125 L 4.234375 7.28125 L 4.234375 9.085938 L 2.789062 9.085938 L 2.773438 9.242188 C 2.683594 10.226562 2.855469 11.132812 3.25 11.90625 L 3.382812 12.144531 C 3.460938 12.285156 3.554688 12.421875 3.652344 12.550781 C 3.75 12.683594 3.785156 12.753906 3.84375 12.839844 C 4.886719 14.011719 6.441406 14.574219 8.234375 14.574219 C 12.203125 14.574219 15.574219 12.816406 17.066406 8.863281 C 18.125 8.972656 19.140625 8.699219 19.601562 7.796875 C 18.867188 7.371094 17.917969 7.507812 17.375 7.78125 L 18.820312 3.675781 L 13.171875 7.28125 L 11.371094 7.28125 L 11.371094 3.675781 Z M 5.960938 3.675781 "/>
</clipPath>
<clipPath id="clip71">
  <path d="M 2 7 L 20 7 L 20 15 L 2 15 Z M 2 7 "/>
</clipPath>
<clipPath id="clip72">
  <path d="M 5.960938 3.675781 L 5.960938 7.28125 L 4.234375 7.28125 L 4.234375 9.085938 L 2.789062 9.085938 L 2.773438 9.242188 C 2.683594 10.226562 2.855469 11.132812 3.25 11.90625 L 3.382812 12.144531 C 3.460938 12.285156 3.554688 12.421875 3.652344 12.550781 C 3.75 12.683594 3.785156 12.753906 3.84375 12.839844 C 4.886719 14.011719 6.441406 14.574219 8.234375 14.574219 C 12.203125 14.574219 15.574219 12.816406 17.066406 8.863281 C 18.125 8.972656 19.140625 8.699219 19.601562 7.796875 C 18.867188 7.371094 17.917969 7.507812 17.375 7.78125 L 18.820312 3.675781 L 13.171875 7.28125 L 11.371094 7.28125 L 11.371094 3.675781 Z M 5.960938 3.675781 "/>
</clipPath>
</defs>
<g id="surface1">
<path style=" stroke:none;fill-rule:nonzero;fill:rgb(22.352941%,30.19608%,32.941177%);fill-opacity:1;" d="M 11.566406 7.105469 L 13.359375 7.105469 L 13.359375 8.9375 L 14.265625 8.9375 C 14.6875 8.9375 15.109375 8.863281 15.511719 8.730469 C 15.707031 8.664062 15.921875 8.570312 16.117188 8.457031 C 15.863281 8.125 15.734375 7.707031 15.691406 7.296875 C 15.640625 6.738281 15.753906 6.007812 16.132812 5.570312 L 16.320312 5.351562 L 16.542969 5.535156 C 17.109375 5.988281 17.585938 6.621094 17.667969 7.347656 C 18.351562 7.144531 19.148438 7.195312 19.75 7.539062 L 19.996094 7.683594 L 19.867188 7.933594 C 19.363281 8.925781 18.300781 9.230469 17.265625 9.175781 C 15.710938 13.042969 12.332031 14.875 8.234375 14.875 C 6.117188 14.875 4.175781 14.082031 3.070312 12.203125 C 3.003906 12.089844 2.949219 11.964844 2.890625 11.847656 C 2.515625 11.019531 2.390625 10.113281 2.476562 9.214844 L 2.5 8.941406 L 4.03125 8.941406 L 4.03125 7.105469 L 5.824219 7.105469 L 5.824219 5.3125 L 9.410156 5.3125 L 9.410156 3.519531 L 11.5625 3.519531 L 11.5625 7.105469 "/>
<g clip-path="url(#clip1)" clip-rule="nonzero">
<g clip-path="url(#clip2)" clip-rule="nonzero">
<path style=" stroke:none;fill-rule:nonzero;fill:rgb(0%,67.450982%,82.745099%);fill-opacity:1;" d="M 9.710938 2.023438 L 11.265625 2.023438 L 11.265625 3.578125 L 9.710938 3.578125 Z M 9.710938 2.023438 "/>
</g>
</g>
<g clip-path="url(#clip3)" clip-rule="nonzero">
<g clip-path="url(#clip4)" clip-rule="nonzero">
<path style=" stroke:none;fill-rule:nonzero;fill:rgb(12.54902%,76.078433%,93.725491%);fill-opacity:1;" d="M 9.710938 3.816406 L 11.265625 3.816406 L 11.265625 5.371094 L 9.710938 5.371094 Z M 9.710938 3.816406 "/>
</g>
</g>
<g clip-path="url(#clip5)" clip-rule="nonzero">
<g clip-path="url(#clip6)" clip-rule="nonzero">
<path style="fill-rule:nonzero;fill:rgb(0%,0%,0%);fill-opacity:1;stroke-width:1.56;stroke-linecap:butt;stroke-linejoin:miter;stroke:rgb(22.352941%,30.19608%,32.941177%);stroke-opacity:1;stroke-miterlimit:4;" d="M 126.283688 21.977734 L 126.283688 5.438805 M 129.272651 21.977734 L 129.272651 5.438805 M 132.261614 21.977734 L 132.261614 5.438805 M 135.250577 21.977734 L 135.250577 5.438805 M 138.289356 21.977734 L 138.289356 5.438805 M 141.228503 21.977734 L 141.228503 5.438805 " transform="matrix(0.0784135,0,0,0.0784135,0.000000152327,1.725868)"/>
</g>
</g>
<g clip-path="url(#clip7)" clip-rule="nonzero">
<g clip-path="url(#clip8)" clip-rule="nonzero">
<path style="fill-rule:nonzero;fill:rgb(0%,0%,0%);fill-opacity:1;stroke-width:1.56;stroke-linecap:butt;stroke-linejoin:miter;stroke:rgb(22.352941%,30.19608%,32.941177%);stroke-opacity:1;stroke-miterlimit:4;" d="M 126.283688 21.977302 L 126.283688 5.438373 M 129.272651 21.977302 L 129.272651 5.438373 M 132.261614 21.977302 L 132.261614 5.438373 M 135.250577 21.977302 L 135.250577 5.438373 M 138.289356 21.977302 L 138.289356 5.438373 M 141.228503 21.977302 L 141.228503 5.438373 " transform="matrix(0.0784135,0,0,0.0784135,0.000000152327,3.518871)"/>
</g>
</g>
<g clip-path="url(#clip9)" clip-rule="nonzero">
<g clip-path="url(#clip10)" clip-rule="nonzero">
<path style=" stroke:none;fill-rule:nonzero;fill:rgb(0%,67.450982%,82.745099%);fill-opacity:1;" d="M 11.503906 5.371094 L 13.058594 5.371094 L 13.058594 3.820312 L 11.503906 3.820312 Z M 11.503906 5.371094 "/>
</g>
</g>
<g clip-path="url(#clip11)" clip-rule="nonzero">
<g clip-path="url(#clip12)" clip-rule="nonzero">
<path style=" stroke:none;fill-rule:nonzero;fill:rgb(12.54902%,76.078433%,93.725491%);fill-opacity:1;" d="M 11.503906 3.578125 L 13.058594 3.578125 L 13.058594 2.023438 L 11.503906 2.023438 Z M 11.503906 3.578125 "/>
</g>
</g>
<g clip-path="url(#clip13)" clip-rule="nonzero">
<g clip-path="url(#clip14)" clip-rule="nonzero">
<path style="fill-rule:nonzero;fill:rgb(0%,0%,0%);fill-opacity:1;stroke-width:1.56;stroke-linecap:butt;stroke-linejoin:miter;stroke:rgb(22.352941%,30.19608%,32.941177%);stroke-opacity:1;stroke-miterlimit:4;" d="M 126.283256 22.000277 L 126.283256 5.461348 M 129.272219 22.000277 L 129.272219 5.461348 M 132.261182 22.000277 L 132.261182 5.461348 M 135.250146 22.000277 L 135.250146 5.461348 M 138.288925 22.000277 L 138.288925 5.461348 M 141.228072 22.000277 L 141.228072 5.461348 " transform="matrix(0.0784135,0,0,-0.0784135,1.793003,5.670431)"/>
</g>
</g>
<g clip-path="url(#clip15)" clip-rule="nonzero">
<g clip-path="url(#clip16)" clip-rule="nonzero">
<path style="fill-rule:nonzero;fill:rgb(0%,0%,0%);fill-opacity:1;stroke-width:1.56;stroke-linecap:butt;stroke-linejoin:miter;stroke:rgb(22.352941%,30.19608%,32.941177%);stroke-opacity:1;stroke-miterlimit:4;" d="M 126.283256 21.999845 L 126.283256 5.460916 M 129.272219 21.999845 L 129.272219 5.460916 M 132.261182 21.999845 L 132.261182 5.460916 M 135.250146 21.999845 L 135.250146 5.460916 M 138.288925 21.999845 L 138.288925 5.460916 M 141.228072 21.999845 L 141.228072 5.460916 " transform="matrix(0.0784135,0,0,-0.0784135,1.793003,3.877428)"/>
</g>
</g>
<g clip-path="url(#clip17)" clip-rule="nonzero">
<g clip-path="url(#clip18)" clip-rule="nonzero">
<path style=" stroke:none;fill-rule:nonzero;fill:rgb(0%,67.450982%,82.745099%);fill-opacity:1;" d="M 2.539062 5.609375 L 4.09375 5.609375 L 4.09375 7.164062 L 2.539062 7.164062 Z M 2.539062 5.609375 "/>
</g>
</g>
<g clip-path="url(#clip19)" clip-rule="nonzero">
<g clip-path="url(#clip20)" clip-rule="nonzero">
<path style=" stroke:none;fill-rule:nonzero;fill:rgb(12.54902%,76.078433%,93.725491%);fill-opacity:1;" d="M 2.539062 7.402344 L 4.09375 7.402344 L 4.09375 8.957031 L 2.539062 8.957031 Z M 2.539062 7.402344 "/>
</g>
</g>
<g clip-path="url(#clip21)" clip-rule="nonzero">
<g clip-path="url(#clip22)" clip-rule="nonzero">
<path style="fill-rule:nonzero;fill:rgb(0%,0%,0%);fill-opacity:1;stroke-width:1.56;stroke-linecap:butt;stroke-linejoin:miter;stroke:rgb(22.352941%,30.19608%,32.941177%);stroke-opacity:1;stroke-miterlimit:4;" d="M 126.285415 21.976871 L 126.285415 5.437942 M 129.274378 21.976871 L 129.274378 5.437942 M 132.263341 21.976871 L 132.263341 5.437942 M 135.252304 21.976871 L 135.252304 5.437942 M 138.291083 21.976871 L 138.291083 5.437942 M 141.23023 21.976871 L 141.23023 5.437942 " transform="matrix(0.0784135,0,0,0.0784135,-7.17201,5.311873)"/>
</g>
</g>
<g clip-path="url(#clip23)" clip-rule="nonzero">
<g clip-path="url(#clip24)" clip-rule="nonzero">
<path style="fill-rule:nonzero;fill:rgb(0%,0%,0%);fill-opacity:1;stroke-width:1.56;stroke-linecap:butt;stroke-linejoin:miter;stroke:rgb(22.352941%,30.19608%,32.941177%);stroke-opacity:1;stroke-miterlimit:4;" d="M 126.285415 21.976439 L 126.285415 5.43751 M 129.274378 21.976439 L 129.274378 5.43751 M 132.263341 21.976439 L 132.263341 5.43751 M 135.252304 21.976439 L 135.252304 5.43751 M 138.291083 21.976439 L 138.291083 5.43751 M 141.23023 21.976439 L 141.23023 5.43751 " transform="matrix(0.0784135,0,0,0.0784135,-7.17201,7.104876)"/>
</g>
</g>
<g clip-path="url(#clip25)" clip-rule="nonzero">
<g clip-path="url(#clip26)" clip-rule="nonzero">
<path style=" stroke:none;fill-rule:nonzero;fill:rgb(0%,67.450982%,82.745099%);fill-opacity:1;" d="M 4.332031 8.957031 L 5.886719 8.957031 L 5.886719 7.40625 L 4.332031 7.40625 Z M 4.332031 8.957031 "/>
</g>
</g>
<g clip-path="url(#clip27)" clip-rule="nonzero">
<g clip-path="url(#clip28)" clip-rule="nonzero">
<path style=" stroke:none;fill-rule:nonzero;fill:rgb(12.54902%,76.078433%,93.725491%);fill-opacity:1;" d="M 4.332031 7.164062 L 5.886719 7.164062 L 5.886719 5.609375 L 4.332031 5.609375 Z M 4.332031 7.164062 "/>
</g>
</g>
<g clip-path="url(#clip29)" clip-rule="nonzero">
<g clip-path="url(#clip30)" clip-rule="nonzero">
<path style="fill-rule:nonzero;fill:rgb(0%,0%,0%);fill-opacity:1;stroke-width:1.56;stroke-linecap:butt;stroke-linejoin:miter;stroke:rgb(22.352941%,30.19608%,32.941177%);stroke-opacity:1;stroke-miterlimit:4;" d="M 126.284983 22.00114 L 126.284983 5.462211 M 129.273946 21.951324 L 129.273946 5.462211 M 132.262909 21.951324 L 132.262909 5.462211 M 135.251872 21.951324 L 135.251872 5.462211 M 138.290651 21.951324 L 138.290651 5.462211 M 141.229798 21.951324 L 141.229798 5.462211 " transform="matrix(0.0784135,0,0,-0.0784135,-5.379008,9.256436)"/>
</g>
</g>
<g clip-path="url(#clip31)" clip-rule="nonzero">
<g clip-path="url(#clip32)" clip-rule="nonzero">
<path style="fill-rule:nonzero;fill:rgb(0%,0%,0%);fill-opacity:1;stroke-width:1.56;stroke-linecap:butt;stroke-linejoin:miter;stroke:rgb(22.352941%,30.19608%,32.941177%);stroke-opacity:1;stroke-miterlimit:4;" d="M 126.284983 22.000708 L 126.284983 5.461779 M 129.273946 22.000708 L 129.273946 5.461779 M 132.262909 22.000708 L 132.262909 5.461779 M 135.251872 22.000708 L 135.251872 5.461779 M 138.290651 22.000708 L 138.290651 5.461779 M 141.229798 22.000708 L 141.229798 5.461779 " transform="matrix(0.0784135,0,0,-0.0784135,-5.379008,7.463433)"/>
</g>
</g>
<g clip-path="url(#clip33)" clip-rule="nonzero">
<g clip-path="url(#clip34)" clip-rule="nonzero">
<path style=" stroke:none;fill-rule:nonzero;fill:rgb(0%,67.450982%,82.745099%);fill-opacity:1;" d="M 6.125 5.609375 L 7.679688 5.609375 L 7.679688 7.164062 L 6.125 7.164062 Z M 6.125 5.609375 "/>
</g>
</g>
<g clip-path="url(#clip35)" clip-rule="nonzero">
<g clip-path="url(#clip36)" clip-rule="nonzero">
<path style=" stroke:none;fill-rule:nonzero;fill:rgb(12.54902%,76.078433%,93.725491%);fill-opacity:1;" d="M 6.125 7.402344 L 7.679688 7.402344 L 7.679688 8.957031 L 6.125 8.957031 Z M 6.125 7.402344 "/>
</g>
</g>
<g clip-path="url(#clip37)" clip-rule="nonzero">
<g clip-path="url(#clip38)" clip-rule="nonzero">
<path style="fill-rule:nonzero;fill:rgb(0%,0%,0%);fill-opacity:1;stroke-width:1.56;stroke-linecap:butt;stroke-linejoin:miter;stroke:rgb(22.352941%,30.19608%,32.941177%);stroke-opacity:1;stroke-miterlimit:4;" d="M 126.284551 21.976871 L 126.284551 5.437942 M 129.273514 21.976871 L 129.273514 5.437942 M 132.262478 21.976871 L 132.262478 5.437942 M 135.251441 21.976871 L 135.251441 5.437942 M 138.29022 21.976871 L 138.29022 5.437942 M 141.229367 21.976871 L 141.229367 5.437942 " transform="matrix(0.0784135,0,0,0.0784135,-3.586005,5.311873)"/>
</g>
</g>
<g clip-path="url(#clip39)" clip-rule="nonzero">
<g clip-path="url(#clip40)" clip-rule="nonzero">
<path style="fill-rule:nonzero;fill:rgb(0%,0%,0%);fill-opacity:1;stroke-width:1.56;stroke-linecap:butt;stroke-linejoin:miter;stroke:rgb(22.352941%,30.19608%,32.941177%);stroke-opacity:1;stroke-miterlimit:4;" d="M 126.284551 21.976439 L 126.284551 5.43751 M 129.273514 21.976439 L 129.273514 5.43751 M 132.262478 21.976439 L 132.262478 5.43751 M 135.251441 21.976439 L 135.251441 5.43751 M 138.29022 21.976439 L 138.29022 5.43751 M 141.229367 21.976439 L 141.229367 5.43751 " transform="matrix(0.0784135,0,0,0.0784135,-3.586005,7.104876)"/>
</g>
</g>
<g clip-path="url(#clip41)" clip-rule="nonzero">
<g clip-path="url(#clip42)" clip-rule="nonzero">
<path style=" stroke:none;fill-rule:nonzero;fill:rgb(0%,67.450982%,82.745099%);fill-opacity:1;" d="M 7.917969 8.957031 L 9.472656 8.957031 L 9.472656 7.40625 L 7.917969 7.40625 Z M 7.917969 8.957031 "/>
</g>
</g>
<g clip-path="url(#clip43)" clip-rule="nonzero">
<g clip-path="url(#clip44)" clip-rule="nonzero">
<path style=" stroke:none;fill-rule:nonzero;fill:rgb(12.54902%,76.078433%,93.725491%);fill-opacity:1;" d="M 7.917969 7.164062 L 9.472656 7.164062 L 9.472656 5.609375 L 7.917969 5.609375 Z M 7.917969 7.164062 "/>
</g>
</g>
<g clip-path="url(#clip45)" clip-rule="nonzero">
<g clip-path="url(#clip46)" clip-rule="nonzero">
<path style="fill-rule:nonzero;fill:rgb(0%,0%,0%);fill-opacity:1;stroke-width:1.56;stroke-linecap:butt;stroke-linejoin:miter;stroke:rgb(22.352941%,30.19608%,32.941177%);stroke-opacity:1;stroke-miterlimit:4;" d="M 126.28412 22.00114 L 126.28412 5.462211 M 129.273083 21.951324 L 129.273083 5.462211 M 132.262046 21.951324 L 132.262046 5.462211 M 135.251009 21.951324 L 135.251009 5.462211 M 138.289788 21.951324 L 138.289788 5.462211 M 141.228935 21.951324 L 141.228935 5.462211 " transform="matrix(0.0784135,0,0,-0.0784135,-1.793002,9.256436)"/>
</g>
</g>
<g clip-path="url(#clip47)" clip-rule="nonzero">
<g clip-path="url(#clip48)" clip-rule="nonzero">
<path style="fill-rule:nonzero;fill:rgb(0%,0%,0%);fill-opacity:1;stroke-width:1.56;stroke-linecap:butt;stroke-linejoin:miter;stroke:rgb(22.352941%,30.19608%,32.941177%);stroke-opacity:1;stroke-miterlimit:4;" d="M 126.28412 22.000708 L 126.28412 5.461779 M 129.273083 22.000708 L 129.273083 5.461779 M 132.262046 22.000708 L 132.262046 5.461779 M 135.251009 22.000708 L 135.251009 5.461779 M 138.289788 22.000708 L 138.289788 5.461779 M 141.228935 22.000708 L 141.228935 5.461779 " transform="matrix(0.0784135,0,0,-0.0784135,-1.793002,7.463433)"/>
</g>
</g>
<g clip-path="url(#clip49)" clip-rule="nonzero">
<g clip-path="url(#clip50)" clip-rule="nonzero">
<path style=" stroke:none;fill-rule:nonzero;fill:rgb(0%,67.450982%,82.745099%);fill-opacity:1;" d="M 9.710938 5.609375 L 11.265625 5.609375 L 11.265625 7.164062 L 9.710938 7.164062 Z M 9.710938 5.609375 "/>
</g>
</g>
<g clip-path="url(#clip51)" clip-rule="nonzero">
<g clip-path="url(#clip52)" clip-rule="nonzero">
<path style=" stroke:none;fill-rule:nonzero;fill:rgb(12.54902%,76.078433%,93.725491%);fill-opacity:1;" d="M 9.710938 7.402344 L 11.265625 7.402344 L 11.265625 8.957031 L 9.710938 8.957031 Z M 9.710938 7.402344 "/>
</g>
</g>
<g clip-path="url(#clip53)" clip-rule="nonzero">
<g clip-path="url(#clip54)" clip-rule="nonzero">
<path style="fill-rule:nonzero;fill:rgb(0%,0%,0%);fill-opacity:1;stroke-width:1.56;stroke-linecap:butt;stroke-linejoin:miter;stroke:rgb(22.352941%,30.19608%,32.941177%);stroke-opacity:1;stroke-miterlimit:4;" d="M 126.283688 21.976871 L 126.283688 5.437942 M 129.272651 21.976871 L 129.272651 5.437942 M 132.261614 21.976871 L 132.261614 5.437942 M 135.250577 21.976871 L 135.250577 5.437942 M 138.289356 21.976871 L 138.289356 5.437942 M 141.228503 21.976871 L 141.228503 5.437942 " transform="matrix(0.0784135,0,0,0.0784135,0.000000152327,5.311873)"/>
</g>
</g>
<g clip-path="url(#clip55)" clip-rule="nonzero">
<g clip-path="url(#clip56)" clip-rule="nonzero">
<path style="fill-rule:nonzero;fill:rgb(0%,0%,0%);fill-opacity:1;stroke-width:1.56;stroke-linecap:butt;stroke-linejoin:miter;stroke:rgb(22.352941%,30.19608%,32.941177%);stroke-opacity:1;stroke-miterlimit:4;" d="M 126.283688 21.976439 L 126.283688 5.43751 M 129.272651 21.976439 L 129.272651 5.43751 M 132.261614 21.976439 L 132.261614 5.43751 M 135.250577 21.976439 L 135.250577 5.43751 M 138.289356 21.976439 L 138.289356 5.43751 M 141.228503 21.976439 L 141.228503 5.43751 " transform="matrix(0.0784135,0,0,0.0784135,0.000000152327,7.104876)"/>
</g>
</g>
<g clip-path="url(#clip57)" clip-rule="nonzero">
<g clip-path="url(#clip58)" clip-rule="nonzero">
<path style=" stroke:none;fill-rule:nonzero;fill:rgb(0%,67.450982%,82.745099%);fill-opacity:1;" d="M 11.503906 8.957031 L 13.058594 8.957031 L 13.058594 7.40625 L 11.503906 7.40625 Z M 11.503906 8.957031 "/>
</g>
</g>
<g clip-path="url(#clip59)" clip-rule="nonzero">
<g clip-path="url(#clip60)" clip-rule="nonzero">
<path style=" stroke:none;fill-rule:nonzero;fill:rgb(12.54902%,76.078433%,93.725491%);fill-opacity:1;" d="M 11.503906 7.164062 L 13.058594 7.164062 L 13.058594 5.609375 L 11.503906 5.609375 Z M 11.503906 7.164062 "/>
</g>
</g>
<g clip-path="url(#clip61)" clip-rule="nonzero">
<g clip-path="url(#clip62)" clip-rule="nonzero">
<path style="fill-rule:nonzero;fill:rgb(0%,0%,0%);fill-opacity:1;stroke-width:1.56;stroke-linecap:butt;stroke-linejoin:miter;stroke:rgb(22.352941%,30.19608%,32.941177%);stroke-opacity:1;stroke-miterlimit:4;" d="M 126.283256 22.00114 L 126.283256 5.462211 M 129.272219 21.951324 L 129.272219 5.462211 M 132.261182 21.951324 L 132.261182 5.462211 M 135.250146 21.951324 L 135.250146 5.462211 M 138.288925 21.951324 L 138.288925 5.462211 M 141.228072 21.951324 L 141.228072 5.462211 " transform="matrix(0.0784135,0,0,-0.0784135,1.793003,9.256436)"/>
</g>
</g>
<g clip-path="url(#clip63)" clip-rule="nonzero">
<g clip-path="url(#clip64)" clip-rule="nonzero">
<path style="fill-rule:nonzero;fill:rgb(0%,0%,0%);fill-opacity:1;stroke-width:1.56;stroke-linecap:butt;stroke-linejoin:miter;stroke:rgb(22.352941%,30.19608%,32.941177%);stroke-opacity:1;stroke-miterlimit:4;" d="M 126.283256 22.000708 L 126.283256 5.461779 M 129.272219 22.000708 L 129.272219 5.461779 M 132.261182 22.000708 L 132.261182 5.461779 M 135.250146 22.000708 L 135.250146 5.461779 M 138.288925 22.000708 L 138.288925 5.461779 M 141.228072 22.000708 L 141.228072 5.461779 " transform="matrix(0.0784135,0,0,-0.0784135,1.793003,7.463433)"/>
</g>
</g>
<g clip-path="url(#clip65)" clip-rule="nonzero">
<g clip-path="url(#clip66)" clip-rule="nonzero">
<path style=" stroke:none;fill-rule:nonzero;fill:rgb(9.019608%,70.980394%,92.156863%);fill-opacity:1;" d="M 17.375 7.78125 C 17.496094 6.847656 16.796875 6.113281 16.363281 5.765625 C 15.863281 6.34375 15.785156 7.859375 16.566406 8.496094 C 16.128906 8.882812 15.207031 9.238281 14.265625 9.238281 L 2.667969 9.238281 C 2.574219 10.222656 2.667969 14.96875 2.667969 14.96875 L 19.683594 14.96875 L 19.605469 7.796875 C 18.867188 7.375 17.917969 7.507812 17.375 7.78125 "/>
</g>
</g>
<g clip-path="url(#clip67)" clip-rule="nonzero">
<g clip-path="url(#clip68)" clip-rule="nonzero">
<path style=" stroke:none;fill-rule:nonzero;fill:rgb(0%,0%,0%);fill-opacity:0.168627;" d="M 2.667969 10.496094 L 2.667969 14.96875 L 19.683594 14.96875 L 19.683594 10.496094 "/>
</g>
</g>
<g clip-path="url(#clip69)" clip-rule="nonzero">
<g clip-path="url(#clip70)" clip-rule="nonzero">
<path style=" stroke:none;fill-rule:nonzero;fill:rgb(83.137256%,92.941177%,94.509804%);fill-opacity:1;" d="M 8.722656 14.566406 C 7.660156 14.0625 7.078125 13.378906 6.753906 12.632812 L 3.527344 12.773438 L 5.175781 14.96875 L 8.722656 14.566406 "/>
</g>
</g>
<g clip-path="url(#clip71)" clip-rule="nonzero">
<g clip-path="url(#clip72)" clip-rule="nonzero">
<path style=" stroke:none;fill-rule:nonzero;fill:rgb(0%,0%,0%);fill-opacity:0.0862745;" d="M 17.445312 7.75 C 15.8125 9.859375 13.464844 11.699219 10.945312 12.667969 C 8.699219 13.53125 6.738281 13.535156 5.386719 12.84375 C 5.242188 12.761719 5.101562 12.667969 4.957031 12.582031 C 3.964844 11.890625 3.410156 10.746094 3.457031 9.234375 L 2.667969 9.234375 L 2.667969 14.96875 L 19.683594 14.96875 L 19.683594 7.441406 L 17.722656 7.441406 Z M 17.445312 7.75 "/>
</g>
</g>
<path style="fill:none;stroke-width:0.628;stroke-linecap:round;stroke-linejoin:miter;stroke:rgb(22.352941%,30.19608%,32.941177%);stroke-opacity:1;stroke-miterlimit:4;" d="M 11.49674 9.612101 C 14.109251 9.759285 16.905741 9.786882 19.334273 9.023367 " transform="matrix(0.424639,0,0,0.424639,-1.303843,8.613636)"/>
<path style=" stroke:none;fill-rule:nonzero;fill:rgb(83.137256%,92.941177%,94.509804%);fill-opacity:1;" d="M 8.011719 11.90625 C 8.011719 12.140625 7.820312 12.335938 7.582031 12.335938 C 7.347656 12.335938 7.15625 12.140625 7.152344 11.90625 C 7.152344 11.667969 7.347656 11.476562 7.582031 11.476562 C 7.820312 11.476562 8.011719 11.667969 8.011719 11.90625 Z M 8.011719 11.90625 "/>
<path style=" stroke:none;fill-rule:nonzero;fill:rgb(22.352941%,30.19608%,32.941177%);fill-opacity:1;" d="M 7.699219 11.621094 C 7.660156 11.640625 7.636719 11.683594 7.636719 11.730469 C 7.636719 11.796875 7.691406 11.855469 7.761719 11.855469 C 7.808594 11.855469 7.847656 11.828125 7.871094 11.789062 C 7.886719 11.824219 7.894531 11.867188 7.894531 11.90625 C 7.894531 12.074219 7.757812 12.214844 7.585938 12.214844 C 7.417969 12.214844 7.28125 12.074219 7.28125 11.90625 C 7.28125 11.738281 7.417969 11.597656 7.585938 11.597656 C 7.625 11.597656 7.664062 11.605469 7.699219 11.621094 Z M 0 10.589844 L 19.941406 10.589844 C 19.507812 10.476562 18.570312 10.332031 18.722656 9.761719 C 17.933594 10.675781 16.03125 10.398438 15.550781 9.949219 C 15.015625 10.726562 11.898438 10.429688 11.683594 9.824219 C 11.011719 10.609375 8.933594 10.609375 8.261719 9.824219 C 8.042969 10.425781 4.929688 10.722656 4.398438 9.949219 C 3.914062 10.398438 2.007812 10.675781 1.21875 9.761719 C 1.375 10.328125 0.433594 10.480469 0 10.589844 "/>
</g>
</svg>
