<?xml version="1.0" encoding="UTF-8"?>
<svg xmlns="http://www.w3.org/2000/svg" xmlns:xlink="http://www.w3.org/1999/xlink" width="px" height="20px" viewBox="0 0 20 20" version="1.1">
<g id="surface1">
<path style=" stroke:none;fill-rule:nonzero;fill:rgb(89.411765%,30.19608%,14.901961%);fill-opacity:1;" d="M 2.789062 18 L 1.183594 0 L 18.816406 0 L 17.210938 18 L 9.988281 20 Z M 2.789062 18 "/>
<path style=" stroke:none;fill-rule:nonzero;fill:rgb(94.509804%,39.607844%,16.078432%);fill-opacity:1;" d="M 15.835938 16.851562 L 17.207031 1.472656 L 10 1.472656 L 10 18.46875 Z M 15.835938 16.851562 "/>
<path style=" stroke:none;fill-rule:nonzero;fill:rgb(92.156863%,92.156863%,92.156863%);fill-opacity:1;" d="M 9.992188 3.679688 L 4.464844 3.679688 L 5.058594 10.355469 L 10 10.355469 L 10 8.148438 L 7.078125 8.148438 L 6.875 5.886719 L 10 5.886719 L 10 3.679688 Z M 10 13.875 L 9.992188 13.878906 L 7.53125 13.214844 L 7.375 11.453125 L 5.15625 11.453125 L 5.46875 14.917969 L 9.988281 16.167969 L 10 16.167969 Z M 10 13.875 "/>
<path style=" stroke:none;fill-rule:nonzero;fill:rgb(100%,100%,100%);fill-opacity:1;" d="M 9.992188 10.355469 L 12.710938 10.355469 L 12.460938 13.21875 L 10 13.882812 L 10 16.179688 L 14.523438 14.925781 L 15.132812 8.148438 L 10 8.148438 Z M 15.46875 4.273438 L 15.523438 3.679688 L 9.992188 3.679688 L 9.992188 5.886719 L 15.324219 5.886719 L 15.367188 5.390625 Z M 15.46875 4.273438 "/>
</g>
</svg>
