<?xml version="1.0" encoding="UTF-8"?>
<svg xmlns="http://www.w3.org/2000/svg" xmlns:xlink="http://www.w3.org/1999/xlink" width="px" height="20px" viewBox="0 0 40 20" version="1.1">
<g id="surface1">
<path style=" stroke:none;fill-rule:evenodd;fill:rgb(0%,40.392157%,54.901963%);fill-opacity:1;" d="M 6 15.015625 L 6.9375 15.015625 L 6.9375 11.300781 L 8.402344 14.539062 C 8.566406 14.929688 8.804688 15.070312 9.265625 15.070312 C 9.726562 15.070312 9.953125 14.925781 10.121094 14.539062 L 11.578125 11.300781 L 11.578125 15.015625 L 12.523438 15.015625 L 12.523438 11.300781 C 12.523438 10.941406 12.378906 10.769531 12.078125 10.675781 C 11.363281 10.457031 10.886719 10.644531 10.671875 11.128906 L 9.234375 14.328125 L 7.851562 11.128906 C 7.644531 10.644531 7.160156 10.457031 6.4375 10.675781 C 6.144531 10.769531 6 10.941406 6 11.300781 Z M 13.304688 11.992188 L 14.25 11.992188 L 14.25 14.035156 C 14.242188 14.148438 14.285156 14.410156 14.796875 14.414062 C 15.0625 14.421875 16.832031 14.414062 16.84375 14.414062 L 16.84375 11.980469 L 17.789062 11.980469 L 17.789062 15.316406 C 17.789062 16.140625 16.773438 16.320312 16.296875 16.328125 L 13.328125 16.328125 L 13.328125 15.699219 L 16.304688 15.699219 C 16.910156 15.632812 16.839844 15.332031 16.839844 15.230469 L 16.839844 14.984375 L 14.839844 14.984375 C 13.910156 14.976562 13.3125 14.566406 13.304688 14.097656 Z M 33.5625 9.628906 C 32.988281 9.613281 32.539062 9.671875 32.164062 9.832031 C 32.054688 9.875 31.882812 9.875 31.867188 10.011719 C 31.925781 10.070312 31.933594 10.164062 31.984375 10.242188 C 32.070312 10.386719 32.222656 10.582031 32.359375 10.679688 C 32.511719 10.796875 32.660156 10.910156 32.820312 11.011719 C 33.101562 11.1875 33.417969 11.285156 33.691406 11.460938 C 33.851562 11.5625 34.011719 11.691406 34.167969 11.800781 C 34.25 11.855469 34.296875 11.949219 34.398438 11.988281 L 34.398438 11.964844 C 34.347656 11.898438 34.335938 11.804688 34.285156 11.734375 C 34.210938 11.660156 34.140625 11.597656 34.066406 11.523438 C 33.859375 11.242188 33.597656 11 33.316406 10.796875 C 33.085938 10.636719 32.582031 10.421875 32.488281 10.15625 L 32.472656 10.140625 C 32.632812 10.125 32.820312 10.070312 32.972656 10.023438 C 33.21875 9.960938 33.441406 9.976562 33.691406 9.910156 C 33.808594 9.882812 33.921875 9.84375 34.039062 9.808594 L 34.039062 9.746094 C 33.910156 9.613281 33.816406 9.441406 33.679688 9.320312 C 33.3125 9 32.90625 8.691406 32.488281 8.433594 C 32.265625 8.289062 31.976562 8.195312 31.738281 8.070312 C 31.652344 8.027344 31.507812 8.007812 31.457031 7.933594 C 31.328125 7.777344 31.257812 7.566406 31.164062 7.378906 C 30.953125 6.984375 30.75 6.542969 30.570312 6.125 C 30.441406 5.84375 30.363281 5.5625 30.203125 5.304688 C 29.460938 4.078125 28.652344 3.335938 27.414062 2.605469 C 27.144531 2.457031 26.828125 2.390625 26.492188 2.3125 L 25.953125 2.28125 C 25.835938 2.230469 25.71875 2.09375 25.621094 2.03125 C 25.207031 1.769531 24.148438 1.207031 23.847656 1.949219 C 23.652344 2.417969 24.132812 2.878906 24.296875 3.117188 C 24.421875 3.285156 24.578125 3.472656 24.667969 3.660156 C 24.714844 3.78125 24.730469 3.910156 24.78125 4.042969 C 24.898438 4.359375 25.003906 4.710938 25.15625 5.007812 C 25.238281 5.160156 25.320312 5.316406 25.421875 5.453125 C 25.480469 5.535156 25.582031 5.570312 25.601562 5.699219 C 25.503906 5.84375 25.496094 6.058594 25.4375 6.242188 C 25.179688 7.054688 25.277344 8.066406 25.644531 8.664062 C 25.761719 8.84375 26.035156 9.238281 26.402344 9.089844 C 26.726562 8.957031 26.65625 8.546875 26.75 8.1875 C 26.769531 8.101562 26.757812 8.042969 26.800781 7.984375 L 26.800781 8 L 27.09375 8.597656 C 27.320312 8.953125 27.707031 9.320312 28.03125 9.5625 C 28.207031 9.695312 28.34375 9.917969 28.558594 9.996094 L 28.558594 9.976562 L 28.542969 9.976562 C 28.5 9.910156 28.4375 9.882812 28.378906 9.832031 C 28.25 9.703125 28.105469 9.542969 28.003906 9.398438 C 27.703125 8.996094 27.433594 8.546875 27.195312 8.085938 C 27.082031 7.863281 26.980469 7.617188 26.886719 7.394531 C 26.84375 7.308594 26.84375 7.175781 26.769531 7.132812 C 26.664062 7.292969 26.503906 7.429688 26.425781 7.625 C 26.289062 7.933594 26.273438 8.316406 26.222656 8.714844 C 26.195312 8.722656 26.207031 8.714844 26.195312 8.726562 C 25.964844 8.671875 25.882812 8.433594 25.796875 8.230469 C 25.582031 7.71875 25.546875 6.898438 25.734375 6.304688 C 25.78125 6.15625 26 5.679688 25.914062 5.535156 C 25.871094 5.398438 25.726562 5.316406 25.644531 5.210938 C 25.550781 5.074219 25.453125 4.898438 25.386719 4.75 C 25.214844 4.34375 25.128906 3.898438 24.941406 3.492188 C 24.851562 3.304688 24.703125 3.113281 24.578125 2.9375 C 24.441406 2.742188 24.292969 2.605469 24.183594 2.375 C 24.148438 2.296875 24.097656 2.167969 24.152344 2.082031 C 24.167969 2.023438 24.199219 2 24.253906 1.988281 C 24.347656 1.90625 24.617188 2.007812 24.710938 2.050781 C 24.976562 2.160156 25.199219 2.261719 25.421875 2.410156 C 25.523438 2.484375 25.632812 2.621094 25.761719 2.65625 L 25.914062 2.65625 C 26.144531 2.707031 26.402344 2.671875 26.621094 2.738281 C 27 2.859375 27.347656 3.039062 27.65625 3.234375 C 28.601562 3.832031 29.382812 4.683594 29.90625 5.699219 C 29.992188 5.867188 30.03125 6.015625 30.109375 6.191406 C 30.261719 6.542969 30.449219 6.902344 30.597656 7.25 C 30.75 7.589844 30.894531 7.9375 31.109375 8.214844 C 31.21875 8.367188 31.652344 8.449219 31.847656 8.527344 C 31.992188 8.589844 32.214844 8.648438 32.34375 8.730469 C 32.589844 8.878906 32.835938 9.054688 33.066406 9.21875 C 33.179688 9.304688 33.539062 9.484375 33.5625 9.628906 Z M 26.210938 3.363281 C 26.109375 3.363281 26.011719 3.375 25.914062 3.398438 L 25.914062 3.414062 L 25.929688 3.414062 C 25.988281 3.53125 26.089844 3.609375 26.160156 3.710938 L 26.328125 4.054688 L 26.339844 4.042969 C 26.441406 3.96875 26.492188 3.855469 26.492188 3.679688 C 26.449219 3.628906 26.441406 3.578125 26.40625 3.53125 C 26.363281 3.457031 26.269531 3.421875 26.210938 3.363281 Z M 26.210938 3.363281 "/>
<path style=" stroke:none;fill-rule:evenodd;fill:rgb(80.784315%,54.509807%,17.254902%);fill-opacity:1;" d="M 18.507812 15.015625 L 21.21875 15.015625 C 21.539062 15.015625 21.839844 14.949219 22.085938 14.835938 C 22.496094 14.648438 22.691406 14.394531 22.691406 14.0625 L 22.691406 13.371094 C 22.691406 13.105469 22.46875 12.851562 22.019531 12.679688 C 21.789062 12.59375 21.5 12.542969 21.21875 12.542969 L 20.082031 12.542969 C 19.699219 12.542969 19.519531 12.425781 19.46875 12.175781 C 19.460938 12.144531 19.460938 12.117188 19.460938 12.085938 L 19.460938 11.664062 C 19.460938 11.640625 19.460938 11.613281 19.46875 11.582031 C 19.519531 11.386719 19.621094 11.335938 19.953125 11.300781 L 22.730469 11.300781 L 22.730469 10.675781 L 20.089844 10.675781 C 19.707031 10.675781 19.503906 10.695312 19.324219 10.753906 C 18.769531 10.925781 18.523438 11.199219 18.523438 11.683594 L 18.523438 12.230469 C 18.523438 12.65625 19 13.019531 19.808594 13.105469 C 19.894531 13.113281 19.988281 13.113281 20.082031 13.113281 L 21.054688 13.113281 C 21.09375 13.113281 21.128906 13.113281 21.15625 13.117188 C 21.453125 13.148438 21.582031 13.199219 21.667969 13.304688 C 21.726562 13.363281 21.742188 13.414062 21.742188 13.480469 L 21.742188 14.027344 C 21.742188 14.089844 21.699219 14.179688 21.609375 14.25 C 21.523438 14.324219 21.386719 14.371094 21.207031 14.378906 C 21.171875 14.378906 21.148438 14.386719 21.113281 14.386719 L 18.507812 14.386719 Z M 28.558594 13.925781 C 28.558594 14.566406 29.042969 14.929688 30.007812 15 C 30.101562 15.007812 30.1875 15.015625 30.28125 15.015625 L 32.734375 15.015625 L 32.734375 14.386719 L 30.261719 14.386719 C 29.714844 14.386719 29.503906 14.25 29.503906 13.917969 L 29.503906 10.675781 L 28.558594 10.675781 Z M 23.289062 13.953125 L 23.289062 11.71875 C 23.289062 11.148438 23.691406 10.804688 24.480469 10.695312 C 24.566406 10.6875 24.652344 10.679688 24.730469 10.679688 L 26.519531 10.679688 C 26.613281 10.679688 26.691406 10.6875 26.785156 10.695312 C 27.570312 10.804688 27.96875 11.148438 27.96875 11.71875 L 27.96875 13.953125 C 27.96875 14.414062 27.800781 14.660156 27.414062 14.828125 L 28.335938 15.664062 L 27.246094 15.664062 L 26.496094 14.984375 L 25.738281 15.027344 L 24.730469 15.027344 C 24.546875 15.027344 24.363281 15.003906 24.183594 14.957031 C 23.585938 14.789062 23.289062 14.472656 23.289062 13.953125 Z M 24.304688 13.90625 C 24.304688 13.933594 24.320312 13.960938 24.328125 14 C 24.378906 14.257812 24.621094 14.402344 24.996094 14.402344 L 25.847656 14.402344 L 25.070312 13.695312 L 26.160156 13.695312 L 26.84375 14.316406 C 26.972656 14.242188 27.050781 14.140625 27.082031 14.011719 C 27.089844 13.984375 27.089844 13.949219 27.089844 13.917969 L 27.089844 11.777344 C 27.089844 11.75 27.089844 11.71875 27.082031 11.691406 C 27.03125 11.445312 26.785156 11.308594 26.417969 11.308594 L 24.996094 11.308594 C 24.578125 11.308594 24.304688 11.488281 24.304688 11.777344 Z M 24.304688 13.90625 "/>
</g>
</svg>
