<?xml version="1.0" encoding="UTF-8"?>
<svg xmlns="http://www.w3.org/2000/svg" xmlns:xlink="http://www.w3.org/1999/xlink" width="px" height="20px" viewBox="0 0 40 20" version="1.1">
<defs>
<clipPath id="clip1">
  <path d="M 4 2 L 35 2 L 35 19 L 4 19 Z M 4 2 "/>
</clipPath>
<clipPath id="clip2">
  <path d="M 4.546875 10.660156 C 4.546875 15.015625 11.347656 18.546875 19.742188 18.546875 C 28.132812 18.546875 34.9375 15.015625 34.9375 10.660156 C 34.9375 6.308594 28.132812 2.777344 19.742188 2.777344 C 11.347656 2.777344 4.546875 6.308594 4.546875 10.660156 "/>
</clipPath>
<radialGradient id="radial0" gradientUnits="userSpaceOnUse" cx="0" cy="0" fx="0" fy="0" r="1" gradientTransform="matrix(19.954025,0,0,19.681611,13.669037,5.548711)">
<stop offset="0" style="stop-color:rgb(68.235294%,69.803922%,83.529412%);stop-opacity:1;"/>
<stop offset="0.3" style="stop-color:rgb(68.235294%,69.803922%,83.529412%);stop-opacity:1;"/>
<stop offset="0.75" style="stop-color:rgb(28.235294%,29.803922%,53.72549%);stop-opacity:1;"/>
<stop offset="1" style="stop-color:rgb(28.235294%,29.803922%,53.72549%);stop-opacity:1;"/>
</radialGradient>
</defs>
<g id="surface1">
<g clip-path="url(#clip1)" clip-rule="nonzero">
<g clip-path="url(#clip2)" clip-rule="nonzero">
<path style=" stroke:none;fill-rule:nonzero;fill:url(#radial0);" d="M 4.546875 10.660156 C 4.546875 15.015625 11.347656 18.546875 19.742188 18.546875 C 28.132812 18.546875 34.9375 15.015625 34.9375 10.660156 C 34.9375 6.308594 28.132812 2.777344 19.742188 2.777344 C 11.347656 2.777344 4.546875 6.308594 4.546875 10.660156 "/>
</g>
</g>
<path style=" stroke:none;fill-rule:nonzero;fill:rgb(46.666667%,48.235294%,70.19608%);fill-opacity:1;" d="M 19.742188 17.960938 C 27.804688 17.960938 34.34375 14.691406 34.34375 10.660156 C 34.34375 6.628906 27.804688 3.363281 19.742188 3.363281 C 11.675781 3.363281 5.140625 6.628906 5.140625 10.660156 C 5.140625 14.691406 11.675781 17.960938 19.742188 17.960938 "/>
<path style=" stroke:none;fill-rule:nonzero;fill:rgb(0%,0%,0%);fill-opacity:1;" d="M 12.800781 11.566406 C 13.464844 11.566406 13.960938 11.445312 14.273438 11.207031 C 14.582031 10.972656 14.796875 10.566406 14.910156 9.996094 C 15.011719 9.464844 14.972656 9.09375 14.789062 8.894531 C 14.601562 8.6875 14.199219 8.585938 13.585938 8.585938 L 12.527344 8.585938 L 11.941406 11.566406 Z M 9.335938 15.238281 C 9.285156 15.238281 9.238281 15.21875 9.207031 15.179688 C 9.175781 15.140625 9.164062 15.09375 9.171875 15.046875 L 10.730469 7.144531 C 10.746094 7.066406 10.8125 7.011719 10.890625 7.011719 L 14.246094 7.011719 C 15.300781 7.011719 16.085938 7.292969 16.582031 7.851562 C 17.078125 8.410156 17.230469 9.195312 17.035156 10.179688 C 16.957031 10.578125 16.820312 10.953125 16.632812 11.285156 C 16.445312 11.617188 16.195312 11.925781 15.890625 12.203125 C 15.527344 12.539062 15.113281 12.78125 14.667969 12.925781 C 14.226562 13.066406 13.664062 13.136719 12.988281 13.136719 L 11.628906 13.136719 L 11.242188 15.105469 C 11.226562 15.183594 11.160156 15.238281 11.082031 15.238281 Z M 9.335938 15.238281 "/>
<path style=" stroke:none;fill-rule:nonzero;fill:rgb(100%,100%,100%);fill-opacity:1;" d="M 12.664062 8.746094 L 13.585938 8.746094 C 14.324219 8.746094 14.582031 8.90625 14.667969 9 C 14.8125 9.160156 14.839844 9.492188 14.746094 9.964844 C 14.644531 10.492188 14.449219 10.867188 14.171875 11.078125 C 13.886719 11.292969 13.425781 11.402344 12.800781 11.402344 L 12.140625 11.402344 Z M 14.246094 6.851562 L 10.890625 6.851562 C 10.734375 6.851562 10.597656 6.960938 10.570312 7.113281 L 9.011719 15.015625 C 8.992188 15.109375 9.019531 15.207031 9.082031 15.28125 C 9.144531 15.359375 9.238281 15.402344 9.335938 15.402344 L 11.082031 15.402344 C 11.238281 15.402344 11.375 15.292969 11.402344 15.136719 L 11.765625 13.300781 L 12.988281 13.300781 C 13.679688 13.300781 14.261719 13.226562 14.71875 13.078125 C 15.1875 12.929688 15.621094 12.675781 16.003906 12.320312 C 16.320312 12.035156 16.578125 11.714844 16.777344 11.363281 C 16.972656 11.015625 17.117188 10.628906 17.199219 10.210938 C 17.402344 9.175781 17.238281 8.34375 16.707031 7.746094 C 16.179688 7.152344 15.351562 6.851562 14.25 6.851562 M 11.738281 11.730469 L 12.800781 11.730469 C 13.503906 11.730469 14.027344 11.597656 14.375 11.335938 C 14.71875 11.074219 14.949219 10.636719 15.070312 10.027344 C 15.1875 9.441406 15.132812 9.027344 14.914062 8.785156 C 14.691406 8.542969 14.25 8.421875 13.585938 8.421875 L 12.390625 8.421875 L 11.738281 11.730469 M 14.25 7.175781 C 15.257812 7.175781 15.992188 7.4375 16.457031 7.957031 C 16.917969 8.480469 17.058594 9.210938 16.875 10.148438 C 16.796875 10.535156 16.667969 10.886719 16.488281 11.207031 C 16.308594 11.527344 16.070312 11.816406 15.777344 12.082031 C 15.429688 12.40625 15.042969 12.632812 14.617188 12.769531 C 14.191406 12.90625 13.648438 12.976562 12.988281 12.976562 L 11.496094 12.976562 L 11.082031 15.078125 L 9.335938 15.078125 L 10.890625 7.175781 L 14.25 7.175781 "/>
<path style=" stroke:none;fill-rule:nonzero;fill:rgb(0%,0%,0%);fill-opacity:1;" d="M 21.039062 13.136719 C 20.988281 13.136719 20.941406 13.117188 20.910156 13.078125 C 20.878906 13.042969 20.867188 12.992188 20.875 12.945312 L 21.5625 9.449219 C 21.628906 9.117188 21.613281 8.878906 21.519531 8.777344 C 21.460938 8.714844 21.285156 8.613281 20.769531 8.613281 L 19.523438 8.613281 L 18.65625 13.007812 C 18.640625 13.082031 18.574219 13.136719 18.496094 13.136719 L 16.765625 13.136719 C 16.714844 13.136719 16.667969 13.117188 16.636719 13.078125 C 16.605469 13.042969 16.59375 12.992188 16.601562 12.945312 L 18.160156 5.042969 C 18.175781 4.96875 18.242188 4.910156 18.320312 4.910156 L 20.050781 4.910156 C 20.101562 4.910156 20.148438 4.933594 20.179688 4.972656 C 20.210938 5.007812 20.222656 5.058594 20.214844 5.105469 L 19.839844 7.011719 L 21.179688 7.011719 C 22.203125 7.011719 22.898438 7.191406 23.300781 7.554688 C 23.710938 7.929688 23.839844 8.527344 23.683594 9.328125 L 22.957031 13.007812 C 22.941406 13.082031 22.875 13.136719 22.796875 13.136719 Z M 21.039062 13.136719 "/>
<path style=" stroke:none;fill-rule:nonzero;fill:rgb(100%,100%,100%);fill-opacity:1;" d="M 20.050781 4.75 L 18.320312 4.75 C 18.164062 4.75 18.027344 4.859375 17.996094 5.011719 L 16.441406 12.914062 C 16.421875 13.007812 16.445312 13.109375 16.507812 13.183594 C 16.570312 13.257812 16.664062 13.300781 16.765625 13.300781 L 18.496094 13.300781 C 18.652344 13.300781 18.789062 13.191406 18.820312 13.039062 L 19.660156 8.773438 L 20.769531 8.773438 C 21.285156 8.773438 21.394531 8.882812 21.398438 8.886719 C 21.429688 8.921875 21.46875 9.074219 21.402344 9.417969 L 20.714844 12.914062 C 20.695312 13.007812 20.71875 13.109375 20.78125 13.183594 C 20.84375 13.257812 20.9375 13.300781 21.039062 13.300781 L 22.796875 13.300781 C 22.953125 13.300781 23.089844 13.191406 23.121094 13.039062 L 23.84375 9.359375 C 24.015625 8.496094 23.867188 7.851562 23.414062 7.4375 C 22.976562 7.042969 22.246094 6.851562 21.179688 6.851562 L 20.039062 6.851562 L 20.375 5.136719 C 20.394531 5.042969 20.371094 4.941406 20.308594 4.867188 C 20.246094 4.792969 20.152344 4.75 20.050781 4.75 M 20.050781 5.074219 L 19.636719 7.175781 L 21.179688 7.175781 C 22.152344 7.175781 22.820312 7.34375 23.1875 7.675781 C 23.558594 8.007812 23.667969 8.550781 23.519531 9.296875 L 22.796875 12.976562 L 21.039062 12.976562 L 21.726562 9.480469 C 21.804688 9.082031 21.777344 8.8125 21.640625 8.664062 C 21.503906 8.519531 21.214844 8.449219 20.769531 8.449219 L 19.386719 8.449219 L 18.496094 12.976562 L 16.765625 12.976562 L 18.320312 5.074219 L 20.050781 5.074219 "/>
<path style=" stroke:none;fill-rule:nonzero;fill:rgb(0%,0%,0%);fill-opacity:1;" d="M 26.421875 11.566406 C 27.085938 11.566406 27.578125 11.445312 27.894531 11.207031 C 28.203125 10.972656 28.417969 10.566406 28.527344 9.996094 C 28.632812 9.464844 28.59375 9.09375 28.410156 8.894531 C 28.222656 8.6875 27.820312 8.585938 27.207031 8.585938 L 26.148438 8.585938 L 25.558594 11.566406 Z M 22.957031 15.238281 C 22.90625 15.238281 22.859375 15.21875 22.828125 15.179688 C 22.796875 15.140625 22.785156 15.09375 22.792969 15.046875 L 24.351562 7.144531 C 24.367188 7.066406 24.433594 7.011719 24.511719 7.011719 L 27.867188 7.011719 C 28.921875 7.011719 29.707031 7.292969 30.203125 7.851562 C 30.695312 8.410156 30.851562 9.195312 30.65625 10.179688 C 30.578125 10.578125 30.441406 10.953125 30.253906 11.285156 C 30.0625 11.617188 29.8125 11.925781 29.511719 12.203125 C 29.148438 12.539062 28.734375 12.78125 28.289062 12.925781 C 27.847656 13.066406 27.285156 13.136719 26.609375 13.136719 L 25.25 13.136719 L 24.863281 15.105469 C 24.847656 15.183594 24.78125 15.238281 24.699219 15.238281 Z M 22.957031 15.238281 "/>
<path style=" stroke:none;fill-rule:nonzero;fill:rgb(100%,100%,100%);fill-opacity:1;" d="M 26.285156 8.746094 L 27.207031 8.746094 C 27.945312 8.746094 28.203125 8.90625 28.289062 9 C 28.433594 9.160156 28.460938 9.492188 28.367188 9.964844 C 28.261719 10.492188 28.070312 10.867188 27.792969 11.078125 C 27.507812 11.292969 27.046875 11.402344 26.421875 11.402344 L 25.761719 11.402344 Z M 27.867188 6.851562 L 24.511719 6.851562 C 24.355469 6.851562 24.21875 6.960938 24.1875 7.113281 L 22.632812 15.015625 C 22.613281 15.109375 22.640625 15.207031 22.703125 15.28125 C 22.765625 15.359375 22.855469 15.402344 22.957031 15.402344 L 24.699219 15.402344 C 24.859375 15.402344 24.996094 15.292969 25.023438 15.136719 L 25.386719 13.300781 L 26.609375 13.300781 C 27.300781 13.300781 27.882812 13.226562 28.339844 13.078125 C 28.808594 12.929688 29.242188 12.675781 29.625 12.320312 C 29.9375 12.035156 30.199219 11.714844 30.398438 11.363281 C 30.59375 11.015625 30.734375 10.628906 30.820312 10.210938 C 31.023438 9.175781 30.855469 8.34375 30.324219 7.746094 C 29.800781 7.152344 28.972656 6.851562 27.867188 6.851562 M 25.359375 11.730469 L 26.421875 11.730469 C 27.125 11.730469 27.648438 11.597656 27.992188 11.335938 C 28.339844 11.074219 28.570312 10.636719 28.691406 10.027344 C 28.804688 9.441406 28.753906 9.027344 28.535156 8.785156 C 28.3125 8.542969 27.871094 8.421875 27.207031 8.421875 L 26.011719 8.421875 L 25.359375 11.730469 M 27.867188 7.175781 C 28.878906 7.175781 29.613281 7.4375 30.078125 7.957031 C 30.539062 8.480469 30.679688 9.210938 30.496094 10.148438 C 30.417969 10.535156 30.289062 10.886719 30.109375 11.207031 C 29.929688 11.527344 29.691406 11.816406 29.398438 12.082031 C 29.050781 12.40625 28.664062 12.632812 28.238281 12.769531 C 27.8125 12.90625 27.269531 12.976562 26.609375 12.976562 L 25.113281 12.976562 L 24.699219 15.078125 L 22.957031 15.078125 L 24.511719 7.175781 L 27.867188 7.175781 "/>
</g>
</svg>
