<?xml version="1.0" encoding="UTF-8"?>
<svg xmlns="http://www.w3.org/2000/svg" xmlns:xlink="http://www.w3.org/1999/xlink" width="px" height="20px" viewBox="0 0 20 20" version="1.1">
<defs>
<linearGradient id="linear0" gradientUnits="userSpaceOnUse" x1="48" y1="44" x2="464" y2="44" gradientTransform="matrix(0.0390625,0,0,0.0390625,0,8.28125)">
<stop offset="0" style="stop-color:rgb(46.666667%,46.27451%,48.235294%);stop-opacity:1;"/>
<stop offset="0.05" style="stop-color:rgb(75.294118%,74.901961%,73.72549%);stop-opacity:1;"/>
<stop offset="0.1" style="stop-color:rgb(60.392157%,60%,58.823529%);stop-opacity:1;"/>
<stop offset="0.899999" style="stop-color:rgb(60.392157%,60%,58.823529%);stop-opacity:1;"/>
<stop offset="0.95" style="stop-color:rgb(75.294118%,74.901961%,73.72549%);stop-opacity:1;"/>
<stop offset="1" style="stop-color:rgb(46.666667%,46.27451%,48.235294%);stop-opacity:1;"/>
</linearGradient>
<clipPath id="clip2">
  <rect x="0" y="0" width="20" height="20"/>
</clipPath>
<g id="surface7" clip-path="url(#clip2)">
<path style=" stroke:none;fill-rule:nonzero;fill:url(#linear0);" d="M 3.125 3.4375 L 16.875 3.4375 C 17.566406 3.4375 18.125 3.996094 18.125 4.6875 L 18.125 16.875 C 18.125 17.566406 17.566406 18.125 16.875 18.125 L 3.125 18.125 C 2.433594 18.125 1.875 17.566406 1.875 16.875 L 1.875 4.6875 C 1.875 3.996094 2.433594 3.4375 3.125 3.4375 Z M 3.125 3.4375 "/>
</g>
<clipPath id="clip3">
  <rect x="0" y="0" width="20" height="20"/>
</clipPath>
<g id="surface10" clip-path="url(#clip3)">
<path style=" stroke:none;fill-rule:nonzero;fill:rgb(87.058824%,86.666667%,85.490197%);fill-opacity:1;" d="M 3.125 1.875 L 16.875 1.875 C 17.566406 1.875 18.125 2.433594 18.125 3.125 L 18.125 15.625 C 18.125 16.316406 17.566406 16.875 16.875 16.875 L 3.125 16.875 C 2.433594 16.875 1.875 16.316406 1.875 15.625 L 1.875 3.125 C 1.875 2.433594 2.433594 1.875 3.125 1.875 Z M 3.125 1.875 "/>
</g>
<clipPath id="clip4">
  <rect x="0" y="0" width="20" height="20"/>
</clipPath>
<g id="surface13" clip-path="url(#clip4)">
<path style=" stroke:none;fill-rule:nonzero;fill:rgb(14.117648%,12.156863%,19.215687%);fill-opacity:1;" d="M 3.125 16.25 L 16.875 16.25 C 17.21875 16.25 17.5 15.96875 17.5 15.625 L 17.5 3.125 C 17.5 2.78125 17.21875 2.5 16.875 2.5 L 3.125 2.5 C 2.78125 2.5 2.5 2.78125 2.5 3.125 L 2.5 15.625 C 2.5 15.96875 2.78125 16.25 3.125 16.25 Z M 3.125 16.25 "/>
</g>
<filter id="alpha" filterUnits="objectBoundingBox" x="0%" y="0%" width="100%" height="100%">
  <feColorMatrix type="matrix" in="SourceGraphic" values="0 0 0 0 1 0 0 0 0 1 0 0 0 0 1 0 0 0 1 0"/>
</filter>
<mask id="mask0">
  <g filter="url(#alpha)">
<rect x="0" y="0" width="20" height="20" style="fill:rgb(0%,0%,0%);fill-opacity:0.0509804;stroke:none;"/>
  </g>
</mask>
<radialGradient id="radial0" gradientUnits="userSpaceOnUse" cx="63.999996" cy="194.190475" fx="63.999996" fy="194.190475" r="44" gradientTransform="matrix(0.738636,-0.000000123999,0.0000000473461,0.255682,-37.27273,-34.650966)">
<stop offset="0" style="stop-color:rgb(100%,100%,100%);stop-opacity:1;"/>
<stop offset="1" style="stop-color:rgb(100%,100%,100%);stop-opacity:0.0941176;"/>
</radialGradient>
<clipPath id="clip5">
  <rect x="0" y="0" width="20" height="20"/>
</clipPath>
<g id="surface16" clip-path="url(#clip5)">
<path style=" stroke:none;fill-rule:nonzero;fill:url(#radial0);" d="M 16.875 15.625 L 3.125 15.625 L 3.125 3.4375 L 16.875 3.4375 Z M 16.875 15.625 "/>
</g>
<linearGradient id="linear1" gradientUnits="userSpaceOnUse" x1="70.346565" y1="245.395111" x2="70.346565" y2="269.136932" gradientTransform="matrix(0.15625,0,0,0.15625,0,-26.875)">
<stop offset="0" style="stop-color:rgb(17.647059%,15.686275%,22.352941%);stop-opacity:1;"/>
<stop offset="1" style="stop-color:rgb(15.686275%,14.117647%,20%);stop-opacity:1;"/>
</linearGradient>
<clipPath id="clip1">
  <rect x="0" y="0" width="20" height="20"/>
</clipPath>
<g id="surface18" clip-path="url(#clip1)">
<use xlink:href="#surface7"/>
<use xlink:href="#surface10"/>
<use xlink:href="#surface13"/>
<use xlink:href="#surface16" mask="url(#mask0)"/>
<path style=" stroke:none;fill-rule:nonzero;fill:rgb(100%,100%,100%);fill-opacity:1;" d="M 6.5625 5.765625 L 4.375 4.574219 L 4.375 5.3125 L 5.890625 6.035156 L 5.890625 6.058594 L 4.375 6.875 L 4.375 7.613281 L 6.5625 6.332031 Z M 6.5625 5.765625 "/>
<path style=" stroke:none;fill-rule:nonzero;fill:rgb(100%,100%,100%);fill-opacity:1;" d="M 7.1875 8.125 L 7.1875 8.75 L 9.6875 8.75 L 9.6875 8.125 Z M 7.1875 8.125 "/>
<path style=" stroke:none;fill-rule:nonzero;fill:url(#linear1);" d="M 15.625 11.25 L 16.25 11.25 L 16.25 11.875 L 15.625 11.875 Z M 14.375 11.25 L 15 11.25 L 15 11.875 L 14.375 11.875 Z M 13.125 11.25 L 13.75 11.25 L 13.75 11.875 L 13.125 11.875 Z M 11.875 11.25 L 12.5 11.25 L 12.5 11.875 L 11.875 11.875 Z M 10.625 11.25 L 11.25 11.25 L 11.25 11.875 L 10.625 11.875 Z M 9.375 11.25 L 10 11.25 L 10 11.875 L 9.375 11.875 Z M 8.125 11.25 L 8.75 11.25 L 8.75 11.875 L 8.125 11.875 Z M 6.875 11.25 L 7.5 11.25 L 7.5 11.875 L 6.875 11.875 Z M 5.625 11.25 L 6.25 11.25 L 6.25 11.875 L 5.625 11.875 Z M 4.375 11.25 L 5 11.25 L 5 11.875 L 4.375 11.875 Z M 3.125 11.25 L 3.75 11.25 L 3.75 11.875 L 3.125 11.875 Z M 16.25 11.875 L 16.875 11.875 L 16.875 12.5 L 16.25 12.5 Z M 15 11.875 L 15.625 11.875 L 15.625 12.5 L 15 12.5 Z M 13.75 11.875 L 14.375 11.875 L 14.375 12.5 L 13.75 12.5 Z M 12.5 11.875 L 13.125 11.875 L 13.125 12.5 L 12.5 12.5 Z M 11.25 11.875 L 11.875 11.875 L 11.875 12.5 L 11.25 12.5 Z M 10 11.875 L 10.625 11.875 L 10.625 12.5 L 10 12.5 Z M 8.75 11.875 L 9.375 11.875 L 9.375 12.5 L 8.75 12.5 Z M 7.5 11.875 L 8.125 11.875 L 8.125 12.5 L 7.5 12.5 Z M 6.25 11.875 L 6.875 11.875 L 6.875 12.5 L 6.25 12.5 Z M 5 11.875 L 5.625 11.875 L 5.625 12.5 L 5 12.5 Z M 3.75 11.875 L 4.375 11.875 L 4.375 12.5 L 3.75 12.5 Z M 15.625 12.5 L 16.25 12.5 L 16.25 13.125 L 15.625 13.125 Z M 14.375 12.5 L 15 12.5 L 15 13.125 L 14.375 13.125 Z M 13.125 12.5 L 13.75 12.5 L 13.75 13.125 L 13.125 13.125 Z M 11.875 12.5 L 12.5 12.5 L 12.5 13.125 L 11.875 13.125 Z M 10.625 12.5 L 11.25 12.5 L 11.25 13.125 L 10.625 13.125 Z M 9.375 12.5 L 10 12.5 L 10 13.125 L 9.375 13.125 Z M 8.125 12.5 L 8.75 12.5 L 8.75 13.125 L 8.125 13.125 Z M 6.875 12.5 L 7.5 12.5 L 7.5 13.125 L 6.875 13.125 Z M 5.625 12.5 L 6.25 12.5 L 6.25 13.125 L 5.625 13.125 Z M 4.375 12.5 L 5 12.5 L 5 13.125 L 4.375 13.125 Z M 3.125 12.5 L 3.75 12.5 L 3.75 13.125 L 3.125 13.125 Z M 16.25 13.125 L 16.875 13.125 L 16.875 13.75 L 16.25 13.75 Z M 15 13.125 L 15.625 13.125 L 15.625 13.75 L 15 13.75 Z M 13.75 13.125 L 14.375 13.125 L 14.375 13.75 L 13.75 13.75 Z M 12.5 13.125 L 13.125 13.125 L 13.125 13.75 L 12.5 13.75 Z M 11.25 13.125 L 11.875 13.125 L 11.875 13.75 L 11.25 13.75 Z M 10 13.125 L 10.625 13.125 L 10.625 13.75 L 10 13.75 Z M 8.75 13.125 L 9.375 13.125 L 9.375 13.75 L 8.75 13.75 Z M 7.5 13.125 L 8.125 13.125 L 8.125 13.75 L 7.5 13.75 Z M 6.25 13.125 L 6.875 13.125 L 6.875 13.75 L 6.25 13.75 Z M 5 13.125 L 5.625 13.125 L 5.625 13.75 L 5 13.75 Z M 3.75 13.125 L 4.375 13.125 L 4.375 13.75 L 3.75 13.75 Z M 15.625 13.75 L 16.25 13.75 L 16.25 14.375 L 15.625 14.375 Z M 14.375 13.75 L 15 13.75 L 15 14.375 L 14.375 14.375 Z M 13.125 13.75 L 13.75 13.75 L 13.75 14.375 L 13.125 14.375 Z M 11.875 13.75 L 12.5 13.75 L 12.5 14.375 L 11.875 14.375 Z M 10.625 13.75 L 11.25 13.75 L 11.25 14.375 L 10.625 14.375 Z M 9.375 13.75 L 10 13.75 L 10 14.375 L 9.375 14.375 Z M 8.125 13.75 L 8.75 13.75 L 8.75 14.375 L 8.125 14.375 Z M 6.875 13.75 L 7.5 13.75 L 7.5 14.375 L 6.875 14.375 Z M 5.625 13.75 L 6.25 13.75 L 6.25 14.375 L 5.625 14.375 Z M 4.375 13.75 L 5 13.75 L 5 14.375 L 4.375 14.375 Z M 3.125 13.75 L 3.75 13.75 L 3.75 14.375 L 3.125 14.375 Z M 16.25 14.375 L 16.875 14.375 L 16.875 15 L 16.25 15 Z M 15 14.375 L 15.625 14.375 L 15.625 15 L 15 15 Z M 13.75 14.375 L 14.375 14.375 L 14.375 15 L 13.75 15 Z M 12.5 14.375 L 13.125 14.375 L 13.125 15 L 12.5 15 Z M 11.25 14.375 L 11.875 14.375 L 11.875 15 L 11.25 15 Z M 10 14.375 L 10.625 14.375 L 10.625 15 L 10 15 Z M 8.75 14.375 L 9.375 14.375 L 9.375 15 L 8.75 15 Z M 7.5 14.375 L 8.125 14.375 L 8.125 15 L 7.5 15 Z M 6.25 14.375 L 6.875 14.375 L 6.875 15 L 6.25 15 Z M 5 14.375 L 5.625 14.375 L 5.625 15 L 5 15 Z M 3.75 14.375 L 4.375 14.375 L 4.375 15 L 3.75 15 Z M 15.625 15 L 16.25 15 L 16.25 15.625 L 15.625 15.625 Z M 14.375 15 L 15 15 L 15 15.625 L 14.375 15.625 Z M 13.125 15 L 13.75 15 L 13.75 15.625 L 13.125 15.625 Z M 11.875 15 L 12.5 15 L 12.5 15.625 L 11.875 15.625 Z M 10.625 15 L 11.25 15 L 11.25 15.625 L 10.625 15.625 Z M 9.375 15 L 10 15 L 10 15.625 L 9.375 15.625 Z M 8.125 15 L 8.75 15 L 8.75 15.625 L 8.125 15.625 Z M 6.875 15 L 7.5 15 L 7.5 15.625 L 6.875 15.625 Z M 5.625 15 L 6.25 15 L 6.25 15.625 L 5.625 15.625 Z M 4.375 15 L 5 15 L 5 15.625 L 4.375 15.625 Z M 3.125 15 L 3.75 15 L 3.75 15.625 L 3.125 15.625 Z M 3.125 15 "/>
</g>
</defs>
<g id="surface1">
<use xlink:href="#surface18"/>
</g>
</svg>
