<svg width="24" height="24" viewBox="0 0 24 24" fill="none" xmlns="http://www.w3.org/2000/svg">
<path d="M1.5 4.5C1.5 2.84315 2.84315 1.5 4.5 1.5H19.5C21.1569 1.5 22.5 2.84315 22.5 4.5V19.5C22.5 21.1569 21.1569 22.5 19.5 22.5H4.5C2.84315 22.5 1.5 21.1569 1.5 19.5V4.5Z" fill="#DA6901"/>
<path d="M9.53771 16.6468C9.53771 16.6468 8.8885 17.0246 10.0004 17.1521C11.3475 17.306 12.036 17.2839 13.5202 17.0033C13.5202 17.0033 13.9112 17.2478 14.4562 17.4597C11.1279 18.8856 6.92382 17.3771 9.53771 16.6468ZM9.13078 14.7858C9.13078 14.7858 8.40244 15.3249 9.51524 15.4402C10.9544 15.5887 12.0906 15.6009 14.0577 15.2223C14.0577 15.2223 14.3291 15.498 14.7566 15.6487C10.7333 16.8253 6.25213 15.7413 9.13078 14.7858Z" fill="white"/>
<path d="M12.5591 11.6284C13.3796 12.5729 12.3439 13.422 12.3439 13.422C12.3439 13.422 14.4261 12.3473 13.4701 11.001C12.5768 9.74598 11.892 9.12264 15.5994 6.97247C15.5994 6.97261 9.77987 8.42562 12.5591 11.6284Z" fill="white"/>
<path d="M16.9609 18.0236C16.9609 18.0236 17.4415 18.4199 16.4314 18.7262C14.5108 19.308 8.43621 19.4835 6.74909 18.7495C6.14291 18.4856 7.28009 18.1196 7.63787 18.0424C8.01089 17.9617 8.22389 17.9764 8.22389 17.9764C7.54934 17.5015 3.86404 18.9093 6.35223 19.3131C13.1374 20.4129 18.7206 18.8178 16.9609 18.0236ZM9.85027 12.8573C9.85027 12.8573 6.76067 13.5912 8.75626 13.858C9.599 13.9708 11.2782 13.9449 12.8435 13.8136C14.1223 13.7061 15.4056 13.4767 15.4056 13.4767C15.4056 13.4767 14.9551 13.6699 14.6288 13.8924C11.4907 14.7179 5.42996 14.3334 7.17496 13.4896C8.65017 12.7761 9.85027 12.8573 9.85027 12.8573ZM15.3928 15.9552C18.5825 14.2982 17.1076 12.7057 16.0781 12.9202C15.8264 12.9726 15.7135 13.0182 15.7135 13.0182C15.7135 13.0182 15.8072 12.8713 15.9859 12.8081C18.0223 12.0924 19.5883 14.9195 15.3291 16.0392C15.3291 16.0389 15.3779 15.9947 15.3928 15.9552Z" fill="white"/>
<path d="M13.4701 3.5C13.4701 3.5 15.2362 5.2672 11.7945 7.98378C9.03449 10.1636 11.1652 11.4062 11.7936 12.8266C10.1823 11.373 9.00045 10.0932 9.79321 8.90225C10.9574 7.15438 14.1825 6.3066 13.4701 3.5Z" fill="white"/>
<path d="M10.1638 20.4467C13.2248 20.6424 17.9266 20.3377 18.0379 18.8892C18.0379 18.8892 17.8239 19.4383 15.5079 19.874C12.8949 20.3659 9.67159 20.3086 7.76044 19.993C7.76044 19.9932 8.15198 20.3173 10.1638 20.4467Z" fill="white"/>
</svg>
