<svg width="24" height="24" viewBox="0 0 24 24" fill="none" xmlns="http://www.w3.org/2000/svg">
<path d="M1.5 4.5C1.5 2.84315 2.84315 1.5 4.5 1.5H19.5C21.1569 1.5 22.5 2.84315 22.5 4.5V19.5C22.5 21.1569 21.1569 22.5 19.5 22.5H4.5C2.84315 22.5 1.5 21.1569 1.5 19.5V4.5Z" fill="#F5DE19"/>
<path d="M14.7606 18.3992C15.2181 18.1327 15.8023 18.3344 16.2212 18.658C16.2812 18.7043 16.3438 18.7476 16.4087 18.7875C16.7537 18.9999 17.1517 19.1104 17.5568 19.1063C18.3743 19.1063 18.8971 18.6975 18.8971 18.1313C18.8971 17.4563 18.3601 17.2148 17.4601 16.821L16.9666 16.6095C15.5416 16.0028 14.5966 15.243 14.5966 13.6365C14.5966 12.1568 15.7216 11.0295 17.4863 11.0295C18.0576 10.9883 18.6284 11.1162 19.1275 11.3972C19.397 11.549 19.6392 11.7418 19.8461 11.9674C20.1469 12.2954 20.0065 12.7928 19.6315 13.0326L19.4325 13.1598C19.0785 13.3861 18.5978 13.2092 18.2484 12.9759V12.9759C18.0221 12.8248 17.7553 12.746 17.4833 12.75C17.3646 12.7382 17.2448 12.7511 17.1314 12.7881C17.018 12.8251 16.9136 12.8853 16.8247 12.9649C16.7359 13.0445 16.6646 13.1418 16.6154 13.2504C16.5662 13.3591 16.5402 13.4768 16.5391 13.596C16.5391 14.1878 16.9058 14.4278 17.7526 14.796L18.2461 15.0075C19.9231 15.7268 20.8711 16.4595 20.8711 18.1073C20.8711 19.884 19.4753 20.8575 17.6011 20.8575C16.8708 20.9041 16.1426 20.7383 15.5045 20.3802C15.1222 20.1656 14.7819 19.8875 14.4973 19.5597C14.1767 19.1905 14.338 18.6453 14.7606 18.3992V18.3992ZM7.77061 18.6018C8.24376 18.3149 8.79629 18.5477 9.23807 18.8809C9.41284 19.0127 9.6253 19.092 9.9053 19.092C10.5533 19.092 10.9628 18.8385 10.9628 17.8523V12.1287C10.9628 11.5838 11.4045 11.142 11.9495 11.142V11.142C12.4944 11.142 12.9361 11.5838 12.9361 12.1287V17.8785C12.9361 19.9215 11.7361 20.8515 9.9893 20.8515C9.37187 20.8853 8.75867 20.7314 8.23032 20.4102C7.95078 20.2402 7.70192 20.0276 7.49187 19.7815C7.17043 19.405 7.34726 18.8586 7.77061 18.6018V18.6018Z" fill="black"/>
</svg>
