<svg width="24" height="24" viewBox="0 0 24 24" fill="none" xmlns="http://www.w3.org/2000/svg">
<path d="M12.7358 17.7711C12.7261 17.6513 12.7203 17.5742 12.7203 17.5742C12.7203 17.5742 12.3584 15.1314 11.9269 14.4022C11.859 14.2862 11.934 13.8125 12.1249 13.1094C12.2365 13.3011 12.7057 14.1252 12.8006 14.3907C12.9069 14.6899 12.9285 14.7757 12.9285 14.7757C12.9285 14.7757 12.6709 13.4498 12.2486 12.6762C12.3513 12.3314 12.4609 11.9887 12.5774 11.6484C12.7371 11.9289 13.121 12.6096 13.2055 12.846C13.2222 12.8941 13.237 12.9351 13.2498 12.973L13.2619 12.9051C13.1651 12.4943 12.9748 11.7796 12.7146 11.251C13.2921 8.24406 15.2627 4.22516 17.2821 2.43195H5.5C3.5 2.43195 2.5 3.5 2.5 5.5C2.5 7.5 2.5 17.5 2.5 17.5C2.5 19.5 3.5 20.1751 5.5 20.1751H12.7846C12.719 19.3756 12.7026 18.5726 12.7358 17.7711Z" fill="url(#paint0_linear_7483_361)"/>
<path d="M20.3565 1.95614C19.4542 1.15125 18.3608 1.47494 17.2829 2.43176C17.1164 2.58063 16.9569 2.73715 16.8049 2.90082C14.9592 4.85744 13.2473 8.48275 12.7154 11.2508C12.9225 11.6713 13.0846 12.2076 13.1902 12.6171C13.2178 12.7221 13.2427 12.8209 13.2627 12.9049C13.3095 13.1029 13.3344 13.2324 13.3344 13.2324C13.3344 13.2324 13.3179 13.1695 13.2499 12.9728C13.2371 12.9351 13.2224 12.8934 13.2056 12.846C13.1969 12.822 13.1875 12.7983 13.1774 12.7748C13.057 12.4954 12.7238 11.9045 12.5776 11.6482C12.4526 12.0173 12.3419 12.3635 12.2488 12.676C12.6718 13.4496 12.9295 14.7756 12.9295 14.7756C12.9295 14.7756 12.9071 14.6898 12.8012 14.3905C12.7064 14.1246 12.2367 13.3011 12.1258 13.1093C11.9348 13.8117 11.8592 14.286 11.9278 14.4022C12.0605 14.6256 12.186 15.0128 12.2969 15.4395C12.5469 16.4021 12.7212 17.5743 12.7212 17.5743C12.7212 17.5743 12.7263 17.6513 12.7366 17.7712C12.7034 18.5727 12.7197 19.3754 12.7853 20.1749C12.868 21.1773 13.0237 22.0391 13.2224 22.5L13.3582 22.4263C13.066 21.5182 12.9474 20.3275 12.9993 18.9554C13.078 16.8565 13.5607 14.3264 14.4522 11.6892C15.9601 7.70738 18.0514 4.5134 19.9651 2.9881C18.2206 4.56344 15.8597 9.66286 15.1528 11.5514C14.362 13.6663 13.8012 15.6504 13.4627 17.5518C14.0452 15.7696 15.9314 15.0039 15.9314 15.0039C15.9314 15.0039 16.8562 13.8624 17.9374 12.2332C17.2893 12.3814 16.2262 12.6339 15.8705 12.7832C15.3455 13.0037 15.2033 13.0785 15.2033 13.0785C15.2033 13.0785 16.9048 12.0429 18.3648 11.5739C20.3719 8.41237 22.5586 3.92064 20.3567 1.95631" fill="#003956"/>
<defs>
<linearGradient id="paint0_linear_7483_361" x1="9.89106" y1="2.43195" x2="9.89106" y2="20.1751" gradientUnits="userSpaceOnUse">
<stop stop-color="#8FD3F2"/>
<stop offset="1" stop-color="#0B7FCC"/>
</linearGradient>
</defs>
</svg>
