<svg width="24" height="24" viewBox="0 0 24 24" fill="none" xmlns="http://www.w3.org/2000/svg">
<rect x="1.5" y="1.5" width="21" height="21" rx="3" fill="#4E6792"/>
<path d="M4.5 1.5C2.84315 1.5 1.5 2.84315 1.5 4.5V19.5C1.5 20.2684 1.78885 20.9692 2.26389 21.5H18.5C20.1569 21.5 21.5 20.1569 21.5 18.5V2.26389C20.9692 1.78885 20.2684 1.5 19.5 1.5H4.5Z" fill="#6181B6"/>
<path d="M5.1856 10.0846C5.23243 9.85094 5.43759 9.68282 5.67585 9.68282H7.639C8.33546 9.68869 8.84013 9.8884 9.15303 10.2819C9.46587 10.6754 9.56917 11.2129 9.46292 11.8943C9.4216 12.2056 9.33011 12.511 9.18845 12.8106C9.05269 13.1101 8.8638 13.3803 8.62179 13.6211C8.32666 13.9265 8.01086 14.1204 7.67441 14.2026C7.3379 14.2849 6.98965 14.326 6.62964 14.326H5.56716L5.3281 15.5154C5.27146 15.7972 5.0239 16 4.73644 16V16C4.35551 16 4.06986 15.6514 4.14472 15.2779L5.1856 10.0846ZM6.30204 10.6872L5.7708 13.3304C5.80622 13.3363 5.84163 13.3392 5.87705 13.3392H6.00101C6.56772 13.3451 7.03993 13.2893 7.41765 13.1718C7.79542 13.0485 8.04923 12.6197 8.17909 11.8855C8.28534 11.2687 8.17909 10.9134 7.86035 10.8194C7.54751 10.7255 7.15498 10.6814 6.68276 10.6872C6.61199 10.6931 6.54411 10.696 6.47912 10.696C6.47912 10.696 6.24447 10.7496 6.29319 10.696C6.29647 10.6924 6.30204 10.6872 6.30204 10.6872ZM10.7682 8.47953C10.8244 8.20061 11.0695 8 11.354 8V8C11.7324 8 12.0155 8.34711 11.9394 8.71772L11.7414 9.68282H12.8393C13.4413 9.69462 13.8899 9.81797 14.1851 10.0529C14.4862 10.2878 14.5747 10.7342 14.4507 11.3921L13.956 13.8389C13.8987 14.1223 13.6497 14.326 13.3606 14.326V14.326C12.9767 14.326 12.6891 13.9744 12.7652 13.5981L13.1846 11.5242C13.2436 11.2305 13.2259 11.022 13.1315 10.8987C13.0371 10.7753 12.8335 10.7137 12.5206 10.7137L11.5378 10.7048L10.9082 13.845C10.8521 14.1247 10.6065 14.326 10.3212 14.326V14.326C9.94308 14.326 9.65967 13.9798 9.73437 13.6091L10.7682 8.47953ZM15.6823 10.0846C15.7291 9.85094 15.9343 9.68282 16.1725 9.68282H18.1357C18.8321 9.68869 19.3368 9.8884 19.6497 10.2819C19.9625 10.6754 20.0658 11.2129 19.9596 11.8943C19.9183 12.2056 19.8268 12.511 19.6851 12.8106C19.5494 13.1101 19.3605 13.3803 19.1185 13.6211C18.8233 13.9265 18.5075 14.1204 18.1711 14.2026C17.8346 14.2849 17.4863 14.326 17.1263 14.326H16.0638L15.8248 15.5154C15.7681 15.7972 15.5206 16 15.2331 16V16C14.8522 16 14.5665 15.6514 14.6414 15.2779L15.6823 10.0846ZM16.7987 10.6872L16.2675 13.3304C16.3029 13.3363 16.3383 13.3392 16.3737 13.3392H16.4977C17.0644 13.3451 17.5366 13.2893 17.9143 13.1718C18.2921 13.0485 18.5459 12.6197 18.6758 11.8855C18.782 11.2687 18.6758 10.9134 18.357 10.8194C18.0442 10.7255 17.6517 10.6814 17.1794 10.6872C17.1086 10.6931 17.0407 10.696 16.9758 10.696H16.7899L16.7987 10.6872Z" fill="white"/>
</svg>
