<svg width="24" height="24" viewBox="0 0 24 24" fill="none" xmlns="http://www.w3.org/2000/svg">
<path d="M12.8123 22.2652C12.2742 22.4187 11.7038 22.4186 11.1657 22.2649L6.62473 20.968C5.42846 20.6264 4.56718 19.5819 4.45975 18.3424L3.28247 4.75904C3.13057 3.00654 4.51219 1.5 6.27126 1.5H17.7284C19.4876 1.5 20.8693 3.00673 20.7172 4.75934L19.5389 18.339C19.4313 19.5787 18.5695 20.6233 17.3728 20.9646L12.8123 22.2652Z" fill="#264DE4"/>
<path d="M16.6734 19.1656C17.2715 18.9949 17.7022 18.4726 17.7559 17.8528L18.8588 5.12953C18.9347 4.25327 18.2439 3.5 17.3644 3.5H12.5C12.2239 3.5 12 3.72386 12 4V19.8373C12 20.1694 12.3179 20.4092 12.6373 20.318L16.6734 19.1656Z" fill="#2965F1"/>
<path d="M7.69101 10.1465C7.01491 10.1465 6.48526 10.7279 6.54814 11.4011V11.4011C6.60325 11.9911 7.09843 12.4422 7.69101 12.4422H12V10.1465H7.69101ZM7.26174 5.5C6.58503 5.5 6.05518 6.08242 6.11901 6.75611V6.75611C6.17485 7.34547 6.66974 7.79568 7.26174 7.79568H12V5.5H7.26174ZM12 16.1086L11.9895 16.1113L9.66459 15.509C9.46061 15.4562 9.31166 15.2811 9.29213 15.0713L9.25527 14.6751C9.19805 14.0602 8.68207 13.5901 8.06454 13.5901V13.5901C7.36035 13.5901 6.8086 14.1955 6.87381 14.8967L6.99066 16.1532C7.04884 16.7789 7.49092 17.3021 8.09819 17.4638L11.989 18.5L12 18.4972V16.1086Z" fill="#EBEBEB"/>
<path d="M17.5676 10.1469L17.8475 7.13896C17.9293 6.25945 17.2373 5.5 16.354 5.5H12.0001V7.79586H14.8266C15.121 7.79586 15.3516 8.0489 15.3245 8.34201L15.1992 9.69301C15.1754 9.95017 14.9596 10.1469 14.7014 10.1469H12.0001V12.4427H14.4006C14.6951 12.4427 14.9258 12.696 14.8985 12.9892L14.7041 15.0707C14.6845 15.2805 14.5355 15.4554 14.3315 15.5082L12 16.1114V18.5L16.5338 17.2956C16.76 17.2355 16.9247 17.0407 16.9463 16.8076V16.8076L17.5092 10.7634L17.5676 10.1469Z" fill="white"/>
</svg>
