<svg width="24" height="24" viewBox="0 0 24 24" fill="none" xmlns="http://www.w3.org/2000/svg">
<path d="M6.42773 20.9563C5.22374 20.6221 4.35298 19.5766 4.24201 18.3321L3.03246 4.76643C2.87597 3.01137 4.25858 1.5 6.0206 1.5H17.9789C19.7411 1.5 21.1237 3.01163 20.967 4.76683L19.756 18.3287C19.6448 19.5734 18.7736 20.6189 17.5694 20.9528L12.7907 22.2777C12.2659 22.4231 11.7115 22.423 11.1868 22.2774L6.42773 20.9563Z" fill="#E44F26"/>
<path d="M12 20.236C12 20.5666 12.315 20.8062 12.6336 20.7179L17.1265 19.4723C17.7287 19.3054 18.1643 18.7826 18.2199 18.1602L19.4232 4.67914C19.5015 3.80156 18.8102 3.04578 17.9291 3.04578H12.5C12.2239 3.04578 12 3.26963 12 3.54578V20.236Z" fill="#F1662A"/>
<path d="M12 10.0553H9.38993C9.13099 10.0553 8.91488 9.8576 8.8919 9.59967L8.7695 8.22591C8.74344 7.93341 8.97387 7.68153 9.26753 7.68153H12V5.36328H6.81247C6.47667 5.36328 6.21318 5.65131 6.243 5.98578V5.98578L6.69044 11.0066C6.7594 11.7804 7.40769 12.3735 8.18452 12.3735H12V10.0553ZM12 16.0755L11.9895 16.0785L9.74474 15.4727C9.54243 15.4181 9.39562 15.2431 9.377 15.0344L9.33724 14.589C9.28389 13.9912 8.78299 13.533 8.18281 13.533V13.533C7.50203 13.533 6.96786 14.117 7.02838 14.795L7.1482 16.1378C7.20373 16.76 7.63907 17.2827 8.24099 17.4498L11.9895 18.4905L12 18.4875V16.0755Z" fill="#EBEBEB"/>
<path d="M11.9917 10.0553V12.3735H14.2996C14.5933 12.3735 14.8237 12.6254 14.7976 12.918L14.6087 15.0329C14.5901 15.2416 14.4433 15.4166 14.2409 15.4711L11.9917 16.0778V18.4898L16.3657 17.277C16.5935 17.2139 16.7581 17.016 16.7789 16.7805V16.7805L17.3234 10.6778V10.6778C17.354 10.3436 17.0909 10.0553 16.7553 10.0553H11.9917ZM11.9917 5.36328V7.68153H17.0686C17.3645 7.68153 17.6114 7.4557 17.6377 7.16103V7.16103L17.7434 5.98578V5.98578C17.7732 5.65131 17.5097 5.36328 17.1739 5.36328H11.9917Z" fill="white"/>
</svg>
